<svg id="Ebene_1" data-name="Ebene 1" xmlns="http://www.w3.org/2000/svg" viewBox="0 0 1126 901"><defs><style>.cls-1,.cls-4{fill:#004570;stroke:#0071aa;}.cls-1{fill-opacity:0.15;}.cls-1,.cls-3,.cls-4{stroke-miterlimit:10;stroke-width:1.5px;}.cls-2{fill:#005081;}.cls-3{fill:none;stroke:#005081;}.cls-4{fill-opacity:0.15;}</style></defs><title>2og-plan</title><g id="Plan"><rect class="cls-1" x="1" y="1" width="198" height="246.8"/><rect class="cls-1" x="1" y="248" width="198" height="154.5"/><rect class="cls-1" x="1" y="403" width="198" height="154.5"/><rect class="cls-1" x="1" y="557" width="198" height="154.5"/><rect class="cls-1" x="1" y="713" width="198" height="187.2"/><rect class="cls-1" x="346" y="155" width="86" height="108.8"/><rect class="cls-1" x="273" y="1" width="144" height="106"/><rect class="cls-1" x="417" y="1" width="90" height="106"/><rect class="cls-1" x="507" y="1" width="124" height="106"/><rect class="cls-1" x="431" y="155" width="89" height="108.8"/><polygon class="cls-1" points="631 1 631 107 717 107 717 2 631 1"/><polygon class="cls-1" points="520 155 520 264 613 264 613 155 520 155"/><rect class="cls-1" x="647" y="154" width="31" height="28.2"/><polygon class="cls-1" points="613 155 613 245 665 245 665 182 647 182 647 154 613 155"/><polygon class="cls-1" points="679 154 717 154 717 245 665 245 665 182 679 182 679 154"/><rect class="cls-1" x="835" y="1" width="44" height="106"/><rect class="cls-1" x="879" y="1" width="124" height="106"/><rect class="cls-1" x="1003" y="1" width="122" height="106"/><rect class="cls-1" x="746" y="409" width="98" height="102.2"/><rect class="cls-1" x="591" y="409" width="156" height="102.2"/><rect class="cls-1" x="492" y="409" width="99" height="102.2"/><rect class="cls-1" x="346" y="409" width="146" height="102.2"/><rect class="cls-1" x="1029" y="410" width="95" height="101.6"/><rect class="cls-1" x="896" y="410" width="134" height="101.6"/><rect class="cls-1" x="979" y="276" width="145" height="98"/><rect class="cls-1" x="811" y="276" width="84" height="98"/><rect class="cls-1" x="764" y="328" width="47" height="46"/><rect class="cls-1" x="764" y="276" width="47" height="52"/><rect class="cls-1" x="896" y="276" width="84" height="98"/><polygon class="cls-1" points="813 245 764 245 764 276 813 276 835 276 835 245 813 245"/><rect class="cls-1" x="613" y="245" width="104" height="18.4"/><rect class="cls-1" x="401" y="790" width="141" height="109.9"/><rect class="cls-1" x="275" y="790" width="126" height="109.9"/><rect class="cls-1" x="542" y="790" width="212" height="109.9"/><rect class="cls-1" x="851" y="790" width="59" height="109.9"/><rect class="cls-1" x="793" y="790" width="59" height="109.9"/><rect class="cls-1" x="755" y="790" width="38" height="109.9"/><rect class="cls-1" x="896" y="651" width="111" height="93"/><rect class="cls-1" x="1007" y="651" width="118" height="93"/><rect class="cls-1" x="1020" y="790" width="105" height="109.9"/><rect class="cls-1" x="909" y="790" width="111" height="109.9"/><rect class="cls-1" x="719" y="651" width="53" height="93"/><rect class="cls-1" x="667" y="651" width="52" height="93"/><rect class="cls-1" x="613" y="651" width="54" height="93"/><rect class="cls-1" x="561" y="651" width="52" height="93"/><rect class="cls-1" x="507" y="651" width="54" height="93"/><rect class="cls-1" x="458" y="651" width="49" height="93"/><polygon class="cls-1" points="458 651 458 744 425 744 425 717 412 717 412 651 458 651"/><rect class="cls-1" x="389" y="717" width="35" height="28"/><polygon class="cls-1" points="346 651 346 744 389 744 389 717 412 717 412 651 346 651"/><rect class="cls-2" x="763" y="311" width="3" height="14.3"/><rect class="cls-2" x="763" y="343" width="3" height="14.3"/><rect class="cls-2" x="763" y="248" width="3" height="14.3"/><rect class="cls-2" x="834" y="65" width="3" height="14.3"/><rect class="cls-2" x="978" y="313" width="3" height="14.3"/><rect class="cls-2" x="895" y="351" width="3" height="14.3"/><rect class="cls-2" x="726" y="510" width="29" height="2.6"/><rect class="cls-2" x="375" y="153" width="14" height="2.6"/><rect class="cls-2" x="376" y="106" width="14" height="2.6"/><rect class="cls-2" x="465" y="106" width="14" height="2.6"/><rect class="cls-2" x="467" y="153" width="14" height="2.6"/><rect class="cls-2" x="555" y="153" width="14" height="2.6"/><rect class="cls-2" x="619" y="153" width="14" height="2.6"/><rect class="cls-2" x="867" y="373" width="14" height="2.6"/><rect class="cls-2" x="914" y="373" width="14" height="2.6"/><rect class="cls-2" x="1047" y="373" width="14" height="2.6"/><rect class="cls-2" x="1051" y="408" width="14" height="2.6"/><rect class="cls-2" x="914" y="408" width="14" height="2.6"/><rect class="cls-2" x="781" y="408" width="14" height="2.6"/><rect class="cls-2" x="644" y="408" width="14" height="2.6"/><rect class="cls-2" x="509" y="408" width="14" height="2.6"/><rect class="cls-2" x="421" y="408" width="14" height="2.6"/><rect class="cls-2" x="650" y="153" width="14" height="2.6"/><rect class="cls-2" x="699" y="153" width="14" height="2.6"/><rect class="cls-2" x="645" y="106" width="14" height="2.6"/><rect class="cls-2" x="960" y="106" width="14" height="2.6"/><rect class="cls-2" x="1051" y="106" width="14" height="2.6"/><rect class="cls-2" x="553" y="106" width="14" height="2.6"/><rect class="cls-2" x="198" y="724" width="3" height="33.4"/><rect class="cls-2" x="198" y="577" width="3" height="33.4"/><rect class="cls-2" x="198" y="668" width="3" height="33.4"/><rect class="cls-2" x="198" y="433" width="3" height="33.4"/><rect class="cls-2" x="198" y="520" width="3" height="33.4"/><rect class="cls-2" x="198" y="259" width="3" height="33.4"/><rect class="cls-2" x="198" y="201" width="3" height="33.4"/><rect class="cls-2" x="198" y="25" width="3" height="33.4"/><rect class="cls-2" x="198" y="347" width="3" height="33.4"/><rect class="cls-2" x="198" y="838" width="3" height="33.4"/><rect class="cls-2" x="373" y="788" width="14" height="2.6"/><rect class="cls-2" x="463" y="789" width="14" height="2.6"/><rect class="cls-2" x="599" y="789" width="14" height="2.6"/><rect class="cls-2" x="694" y="789" width="14" height="2.6"/><rect class="cls-2" x="824" y="789" width="14" height="2.6"/><rect class="cls-2" x="768" y="789" width="14" height="2.6"/><rect class="cls-2" x="872" y="789" width="14" height="2.6"/><rect class="cls-2" x="368" y="743" width="14" height="2.6"/><rect class="cls-2" x="391" y="743" width="14" height="2.6"/><rect class="cls-2" x="440" y="743" width="14" height="2.6"/><rect class="cls-2" x="473" y="743" width="14" height="2.6"/><rect class="cls-2" x="516" y="743" width="14" height="2.6"/><rect class="cls-2" x="596" y="743" width="14" height="2.6"/><rect class="cls-2" x="643" y="743" width="14" height="2.6"/><rect class="cls-2" x="736" y="743" width="14" height="2.6"/><rect class="cls-2" x="961" y="743" width="14" height="2.6"/><rect class="cls-2" x="1052" y="743" width="14" height="2.6"/><rect class="cls-2" x="1052" y="788" width="14" height="2.6"/><rect class="cls-2" x="961" y="788" width="14" height="2.6"/><rect class="cls-2" x="690" y="743" width="14" height="2.6"/><rect class="cls-2" x="272" y="277" width="3" height="14.3"/><rect class="cls-1" x="273" y="264" width="32" height="38.8"/><path class="cls-3" d="M1125,511V276H835V156h290V1H1V900H1125V651H896V511ZM273,244h72v19H613V371H273V244Zm0,407V410h72V511H844V652Z"/><rect class="cls-4" x="272" y="155" width="73" height="90.1"/><line class="cls-3" x1="279" y1="158" x2="312" y2="158"/><line class="cls-3" x1="337" y1="158" x2="312" y2="158"/><line class="cls-3" x1="279" y1="162" x2="312" y2="162"/><line class="cls-3" x1="337" y1="162" x2="312" y2="162"/><line class="cls-3" x1="279" y1="166" x2="312" y2="166"/><line class="cls-3" x1="337" y1="166" x2="312" y2="166"/><line class="cls-3" x1="279" y1="171" x2="312" y2="171"/><line class="cls-3" x1="337" y1="171" x2="312" y2="171"/><line class="cls-3" x1="279" y1="175" x2="312" y2="175"/><line class="cls-3" x1="337" y1="175" x2="312" y2="175"/><line class="cls-3" x1="279" y1="179" x2="312" y2="179"/><line class="cls-3" x1="337" y1="179" x2="312" y2="179"/><line class="cls-3" x1="279" y1="183" x2="312" y2="183"/><line class="cls-3" x1="337" y1="183" x2="312" y2="183"/><line class="cls-3" x1="279" y1="187" x2="312" y2="187"/><line class="cls-3" x1="337" y1="187" x2="312" y2="187"/><line class="cls-3" x1="279" y1="192" x2="312" y2="192"/><line class="cls-3" x1="337" y1="192" x2="312" y2="192"/><line class="cls-3" x1="279" y1="196" x2="312" y2="196"/><line class="cls-3" x1="337" y1="196" x2="312" y2="196"/><line class="cls-3" x1="279" y1="200" x2="312" y2="200"/><line class="cls-3" x1="337" y1="200" x2="312" y2="200"/><line class="cls-3" x1="279" y1="204" x2="312" y2="204"/><line class="cls-3" x1="337" y1="204" x2="312" y2="204"/><rect class="cls-4" x="763" y="156" width="72" height="89.5"/><line class="cls-3" x1="768" y1="159" x2="803" y2="159"/><line class="cls-3" x1="829" y1="159" x2="803" y2="159"/><line class="cls-3" x1="768" y1="163" x2="803" y2="163"/><line class="cls-3" x1="829" y1="163" x2="803" y2="163"/><line class="cls-3" x1="768" y1="167" x2="803" y2="167"/><line class="cls-3" x1="829" y1="167" x2="803" y2="167"/><line class="cls-3" x1="768" y1="171" x2="803" y2="171"/><line class="cls-3" x1="829" y1="171" x2="803" y2="171"/><line class="cls-3" x1="768" y1="175" x2="803" y2="175"/><line class="cls-3" x1="829" y1="175" x2="803" y2="175"/><line class="cls-3" x1="768" y1="180" x2="803" y2="180"/><line class="cls-3" x1="829" y1="180" x2="803" y2="180"/><line class="cls-3" x1="768" y1="184" x2="803" y2="184"/><line class="cls-3" x1="829" y1="184" x2="803" y2="184"/><line class="cls-3" x1="768" y1="188" x2="803" y2="188"/><line class="cls-3" x1="829" y1="188" x2="803" y2="188"/><line class="cls-3" x1="768" y1="192" x2="803" y2="192"/><line class="cls-3" x1="829" y1="192" x2="803" y2="192"/><line class="cls-3" x1="768" y1="197" x2="803" y2="197"/><line class="cls-3" x1="829" y1="197" x2="803" y2="197"/><line class="cls-3" x1="768" y1="201" x2="803" y2="201"/><line class="cls-3" x1="829" y1="201" x2="803" y2="201"/><line class="cls-3" x1="768" y1="205" x2="803" y2="205"/><line class="cls-3" x1="829" y1="205" x2="803" y2="205"/><rect class="cls-4" x="772" y="651" width="72" height="92.4"/><line class="cls-3" x1="837" y1="741" x2="803" y2="741"/><line class="cls-3" x1="779" y1="741" x2="803" y2="741"/><line class="cls-3" x1="837" y1="737" x2="803" y2="737"/><line class="cls-3" x1="779" y1="737" x2="803" y2="737"/><line class="cls-3" x1="837" y1="732" x2="803" y2="732"/><line class="cls-3" x1="779" y1="732" x2="803" y2="732"/><line class="cls-3" x1="837" y1="728" x2="803" y2="728"/><line class="cls-3" x1="779" y1="728" x2="803" y2="728"/><line class="cls-3" x1="837" y1="724" x2="803" y2="724"/><line class="cls-3" x1="779" y1="724" x2="803" y2="724"/><line class="cls-3" x1="837" y1="720" x2="803" y2="720"/><line class="cls-3" x1="779" y1="720" x2="803" y2="720"/><line class="cls-3" x1="837" y1="716" x2="803" y2="716"/><line class="cls-3" x1="779" y1="716" x2="803" y2="716"/><line class="cls-3" x1="837" y1="711" x2="803" y2="711"/><line class="cls-3" x1="779" y1="711" x2="803" y2="711"/><line class="cls-3" x1="837" y1="707" x2="803" y2="707"/><line class="cls-3" x1="779" y1="707" x2="803" y2="707"/><line class="cls-3" x1="837" y1="703" x2="803" y2="703"/><line class="cls-3" x1="779" y1="703" x2="803" y2="703"/><line class="cls-3" x1="837" y1="699" x2="803" y2="699"/><line class="cls-3" x1="779" y1="699" x2="803" y2="699"/><line class="cls-3" x1="837" y1="694" x2="803" y2="694"/><line class="cls-3" x1="779" y1="694" x2="803" y2="694"/><rect class="cls-4" x="275" y="651" width="70" height="92.4"/><line class="cls-3" x1="339" y1="740" x2="306" y2="740"/><line class="cls-3" x1="281" y1="740" x2="306" y2="740"/><line class="cls-3" x1="339" y1="736" x2="306" y2="736"/><line class="cls-3" x1="281" y1="736" x2="306" y2="736"/><line class="cls-3" x1="339" y1="731" x2="306" y2="731"/><line class="cls-3" x1="281" y1="731" x2="306" y2="731"/><line class="cls-3" x1="339" y1="727" x2="306" y2="727"/><line class="cls-3" x1="281" y1="727" x2="306" y2="727"/><line class="cls-3" x1="339" y1="723" x2="306" y2="723"/><line class="cls-3" x1="281" y1="723" x2="306" y2="723"/><line class="cls-3" x1="339" y1="719" x2="306" y2="719"/><line class="cls-3" x1="281" y1="719" x2="306" y2="719"/><line class="cls-3" x1="339" y1="714" x2="306" y2="714"/><line class="cls-3" x1="281" y1="714" x2="306" y2="714"/><line class="cls-3" x1="339" y1="710" x2="306" y2="710"/><line class="cls-3" x1="281" y1="710" x2="306" y2="710"/><line class="cls-3" x1="339" y1="706" x2="306" y2="706"/><line class="cls-3" x1="281" y1="706" x2="306" y2="706"/><line class="cls-3" x1="339" y1="702" x2="306" y2="702"/><line class="cls-3" x1="281" y1="702" x2="306" y2="702"/><line class="cls-3" x1="339" y1="697" x2="306" y2="697"/><line class="cls-3" x1="281" y1="697" x2="306" y2="697"/><line class="cls-3" x1="339" y1="693" x2="306" y2="693"/><line class="cls-3" x1="281" y1="693" x2="306" y2="693"/></g><g id="Label"><path class="cls-2" d="M291,62h-7V49h1v5h0v6h6Z"/><path class="cls-2" d="M294,61h0Z"/><path class="cls-2" d="M308,62h-1V56h-7v6h-1V49h1v6h8V49h1Z"/><path class="cls-2" d="M317,55h5v6h-4l-5-2a7,7,0,0,1-2-5,8,8,0,0,1,1-3l2-2h3l-4,2a6,6,0,0,0-1,4,6,6,0,0,0,1,4l4,2h3V56h-4Z"/><path class="cls-2" d="M324,61h0Z"/><path class="cls-2" d="M336,62h-8l3-4,2-2h1V50h1a3,3,0,0,1,1,3v3l-2,3-3,3h7Z"/><path class="cls-2" d="M347,55a9,9,0,0,1-1,5l-3,2-3-2a10,10,0,0,1-1-5,10,10,0,0,1,1-5l3-2,3,2A10,10,0,0,1,347,55Zm-7,0a10,10,0,0,0,1,4h5a10,10,0,0,0,1-4,10,10,0,0,0-1-4h-5A10,10,0,0,0,339,55Z"/><path class="cls-2" d="M354,62h-1V53a23,23,0,0,1,0-3h0l-3,2h0l4-3h1Z"/><path class="cls-2" d="M64,132H57V119h1v5h0v6h6Z"/><path class="cls-2" d="M66,131h0Z"/><path class="cls-2" d="M80,132H79v-6H72v6H71V119h1v6h8v-6h1v13Z"/><path class="cls-2" d="M89,125h5v6H89l-5-2a7,7,0,0,1-2-5,8,8,0,0,1,1-3l2-2h3l-4,2a6,6,0,0,0-1,4,6,6,0,0,0,1,4l4,2h3v-4H89Z"/><path class="cls-2" d="M97,131h0Z"/><path class="cls-2" d="M111,132h-1v-6h-7v6h-1V119h1v6h8v-6h1Z"/><path class="cls-2" d="M121,128a3,3,0,0,1-1,3h-1v-2h-6v-4h1v2h7Z"/><path class="cls-2" d="M128,132h-1v-9a23,23,0,0,1,0-3h0l-3,2h0l4-3h1v13Z"/><path class="cls-2" d="M307,850h-7V837h1v5h0v6h6Z"/><path class="cls-2" d="M309,849h0Z"/><path class="cls-2" d="M323,850h-1v-6h-7v6h-1V837h1v6h8v-6h1Z"/><path class="cls-2" d="M332,844h5v6h-4l-5-2a7,7,0,0,1-2-5,8,8,0,0,1,1-3l2-2h3l-4,2a6,6,0,0,0-1,4,6,6,0,0,0,1,4l4,2h3v-4h-4Z"/><path class="cls-2" d="M340,849h0Z"/><path class="cls-2" d="M351,850h-8l3-4,2-2h1v-2h1a3,3,0,0,1,1,3v3l-2,3-3,3h7Z"/><path class="cls-2" d="M361,840v2h0a3,3,0,0,1,1,2,3,3,0,0,1-1,3h-1a3,3,0,0,0,1-2v-2h0v-4h1A3,3,0,0,1,361,840Z"/><path class="cls-2" d="M366,850l5-12h1l-5,12Z"/><path class="cls-2" d="M64,333H57V320h1v5h0v6h6Z"/><path class="cls-2" d="M66,332h0Z"/><path class="cls-2" d="M80,333H79v-6H72v6H71V320h1v6h8v-6h1v13Z"/><path class="cls-2" d="M89,326h5v6H89l-5-2a7,7,0,0,1-2-5,8,8,0,0,1,1-3l2-2h3l-4,2a6,6,0,0,0-1,4,6,6,0,0,0,1,4l4,2h3v-4H89Z"/><path class="cls-2" d="M97,332h0Z"/><path class="cls-2" d="M111,333h-1v-6h-7v6h-1V320h1v6h8v-6h1Z"/><path class="cls-2" d="M121,329a3,3,0,0,1-1,3h-1v-2h-6v-4h1v2h7Z"/><path class="cls-2" d="M131,333h-8l3-4,2-2h1v-2h1a3,3,0,0,1,1,3v3l-2,3-3,3h7Z"/><path class="cls-2" d="M64,489H57V476h1v5h0v6h6Z"/><path class="cls-2" d="M66,488h0Z"/><path class="cls-2" d="M80,489H79v-6H72v6H71V476h1v6h8v-6h1v13Z"/><path class="cls-2" d="M89,482h5v6H89l-5-2a7,7,0,0,1-2-5,8,8,0,0,1,1-3l2-2h3l-4,2a6,6,0,0,0-1,4,6,6,0,0,0,1,4l4,2h3v-4H89Z"/><path class="cls-2" d="M97,488h0Z"/><path class="cls-2" d="M111,489h-1v-6h-7v6h-1V476h1v6h8v-6h1Z"/><path class="cls-2" d="M121,486a3,3,0,0,1-1,3h-1v-2h-6v-4h1v2h7Z"/><path class="cls-2" d="M131,479v2h0a3,3,0,0,1,1,2,3,3,0,0,1-1,3h-1a3,3,0,0,0,1-2v-2h0v-4h1A3,3,0,0,1,131,479Z"/><path class="cls-2" d="M64,643H57V630h1v5h0v6h6Z"/><path class="cls-2" d="M66,642h0Z"/><path class="cls-2" d="M80,643H79v-6H72v6H71V630h1v6h8v-6h1v13Z"/><path class="cls-2" d="M89,636h5v6H89l-5-2a7,7,0,0,1-2-5,8,8,0,0,1,1-3l2-2h3l-4,2a6,6,0,0,0-1,4,6,6,0,0,0,1,4l4,2h3v-4H89Z"/><path class="cls-2" d="M97,642h0Z"/><path class="cls-2" d="M111,643h-1v-6h-7v6h-1V630h1v6h8v-6h1Z"/><path class="cls-2" d="M121,639a3,3,0,0,1-1,3h-1v-2h-6v-4h1v2h7Z"/><path class="cls-2" d="M132,639h-2v3h-1v-3h-7l6-9h1v9h2Zm-3-1v-4c0-2,0-3,0-4h0v2l-4,7Z"/><path class="cls-2" d="M64,809H57V797h1v5h0v6h6Z"/><path class="cls-2" d="M66,809h0Z"/><path class="cls-2" d="M80,809H79v-6H72v6H71V797h1v6h8v-6h1v13Z"/><path class="cls-2" d="M89,803h5v6H89l-5-2a7,7,0,0,1-2-5,8,8,0,0,1,1-3l2-2h3l-4,2a6,6,0,0,0-1,4,6,6,0,0,0,1,4l4,2h3v-4H89Z"/><path class="cls-2" d="M97,809h0Z"/><path class="cls-2" d="M111,809h-1v-6h-7v6h-1V797h1v6h8v-6h1Z"/><path class="cls-2" d="M121,806a3,3,0,0,1-1,3h-1v-2h-6v-4h1v2h7Z"/><path class="cls-2" d="M127,802h3a4,4,0,0,1,1,3,4,4,0,0,1-1,3h-1a3,3,0,0,0,1-2,2,2,0,0,0-1-2h-6v-6h1v5Z"/><path class="cls-2" d="M446,850h-7V837h1v5h0v6h6Z"/><path class="cls-2" d="M449,849h0Z"/><path class="cls-2" d="M462,850h-1v-6h-7v6h-1V837h1v6h8v-6h1Z"/><path class="cls-2" d="M471,844h5v6h-4l-5-2a7,7,0,0,1-2-5,8,8,0,0,1,1-3l2-2h3l-4,2a6,6,0,0,0-1,4,6,6,0,0,0,1,4l4,2h3v-4h-4Z"/><path class="cls-2" d="M479,849h0Z"/><path class="cls-2" d="M491,850h-8l3-4,2-2h1v-2h1a3,3,0,0,1,1,3v3l-2,3-3,3h7Z"/><path class="cls-2" d="M500,840v2h0a3,3,0,0,1,1,2,3,3,0,0,1-1,3h-1a3,3,0,0,0,1-2v-2h0v-4h1A3,3,0,0,1,500,840Z"/><path class="cls-2" d="M503,845a10,10,0,0,1,1-4l2-2h3l-3,2a8,8,0,0,0-1,5h6a4,4,0,0,1,1,3,5,5,0,0,1-1,3h-6A9,9,0,0,1,503,845Zm4,5h2a4,4,0,0,0,1-3v-2h-6v2h3Z"/><path class="cls-2" d="M865,86v7H852V86h1v6h5V87h1v6h6V86Z"/><path class="cls-2" d="M864,84h0Z"/><path class="cls-2" d="M865,70h-6v8h-1V71h7Z"/><path class="cls-2" d="M858,61V56h6a11,11,0,0,1,1,4,6,6,0,0,1-2,5l-5,2h-3l-2-2a7,7,0,0,1-1-3,9,9,0,0,1,1-4h1a9,9,0,0,0-1,4,5,5,0,0,0,2,4l4,2h4a5,5,0,0,0,2-4,9,9,0,0,0,0-3h-4v4Z"/><path class="cls-2" d="M864,54h0Z"/><path class="cls-2" d="M865,42v8h-1l-4-3-2-2h-5v2a5,5,0,0,0,1,3h-1a6,6,0,0,1-1-4,4,4,0,0,1,1-3h5l3,2,3,3h0V42Z"/><path class="cls-2" d="M858,31h5a3,3,0,0,1,2,3,4,4,0,0,1-2,3H853a3,3,0,0,1-2-3,3,3,0,0,1,2-3Zm0,7h4a3,3,0,0,0,1-2,3,3,0,0,0-1-2h-9a3,3,0,0,0,0,5Z"/><path class="cls-2" d="M857,25a4,4,0,0,1,1-3h6a5,5,0,0,1,1,3v2h-1V25a4,4,0,0,0-1-3h-5a5,5,0,0,0-1,3v2h-6V22h1v5h5A6,6,0,0,1,857,25Z"/><path class="cls-2" d="M926,703h-7V690h1v5h0v6h6Z"/><path class="cls-2" d="M928,702h0Z"/><path class="cls-2" d="M942,703h-1v-6h-7v6h-1V690h1v6h8v-6h1Z"/><path class="cls-2" d="M951,696h5v6h-4l-5-2a7,7,0,0,1-2-5,8,8,0,0,1,1-3l2-2h3l-4,2a6,6,0,0,0-1,4,6,6,0,0,0,1,4l4,2h3v-4h-4Z"/><path class="cls-2" d="M958,702h0Z"/><path class="cls-2" d="M970,703h-8l3-4,2-2h1v-2h1a3,3,0,0,1,1,3v3l-2,3-3,3h7Z"/><path class="cls-2" d="M980,703h-8l3-4,2-2h1v-2h1a3,3,0,0,1,1,3v3l-2,3-3,3h7Z"/><path class="cls-2" d="M987,690h3a3,3,0,0,1,1,2v2h-2l2,2v2a3,3,0,0,1-1,3h-6a3,3,0,0,1-1-3v-2h0v-3h3Zm-3,10v2h5v-4h-5A2,2,0,0,0,984,699Zm3-9h-2v2h5v-3Z"/><path class="cls-2" d="M933,850h-7V837h1v5h0v6h6Z"/><path class="cls-2" d="M935,849h0Z"/><path class="cls-2" d="M949,850h-1v-6h-7v6h-1V837h1v6h8v-6h1Z"/><path class="cls-2" d="M958,844h5v6h-4l-5-2a7,7,0,0,1-2-5,8,8,0,0,1,1-3l2-2h3l-4,2a6,6,0,0,0-1,4,6,6,0,0,0,1,4l4,2h3v-4h-4Z"/><path class="cls-2" d="M965,849h0Z"/><path class="cls-2" d="M977,850h-8l3-4,2-2h1v-2h1a3,3,0,0,1,1,3v3l-2,3-3,3h7Z"/><path class="cls-2" d="M987,840v2h0a3,3,0,0,1,1,2,3,3,0,0,1-1,3h-1a3,3,0,0,0,1-2v-2h0v-4h1A3,3,0,0,1,987,840Z"/><path class="cls-2" d="M995,850h-1v-9a23,23,0,0,1,0-3h0l-3,2h0l4-3h1v13Z"/><path class="cls-2" d="M829,879v7H816v-7h1v6h5v-6h1v6h6v-6Z"/><path class="cls-2" d="M828,876h0Z"/><path class="cls-2" d="M829,862h-6v8h-1v-7h7Z"/><path class="cls-2" d="M823,853v-5h6a11,11,0,0,1,1,4,6,6,0,0,1-2,5l-5,2h-3l-2-2a7,7,0,0,1-1-3,9,9,0,0,1,1-4h1a9,9,0,0,0-1,4,5,5,0,0,0,2,4l4,2h4a5,5,0,0,0,2-4,9,9,0,0,0,0-3h-4v4Z"/><path class="cls-2" d="M828,846h0Z"/><path class="cls-2" d="M829,834v8h-1l-4-3-2-2h-5v2a5,5,0,0,0,1,3h-1a6,6,0,0,1-1-4,4,4,0,0,1,1-3h5l3,2,3,3h0v-7Z"/><path class="cls-2" d="M819,824h2v2h0v-2h5a5,5,0,0,1,1,4,7,7,0,0,1-1,3h-1v-3a5,5,0,0,0-1-3h-4a5,5,0,0,0-1,3h-1a4,4,0,0,0-1-2h-4v6h-1v-4a4,4,0,0,1,1-3Z"/><path class="cls-2" d="M819,814h2v2h0v-2h5a5,5,0,0,1,1,4,7,7,0,0,1-1,3h-1v-3a5,5,0,0,0-1-3h-4a5,5,0,0,0-1,3h-1a4,4,0,0,0-1-2h-4v6h-1v-4a4,4,0,0,1,1-3Z"/><path class="cls-2" d="M885,879v7H872v-7h1v6h5v-6h1v6h6v-6Z"/><path class="cls-2" d="M885,876h0Z"/><path class="cls-2" d="M885,862h-6v8h-1v-7h7Z"/><path class="cls-2" d="M879,853v-5h6a11,11,0,0,1,1,4,6,6,0,0,1-2,5l-5,2h-3l-2-2a7,7,0,0,1-1-3,9,9,0,0,1,1-4h1a9,9,0,0,0-1,4,5,5,0,0,0,2,4l4,2h4a5,5,0,0,0,2-4,9,9,0,0,0,0-3h-4v4Z"/><path class="cls-2" d="M885,846h0Z"/><path class="cls-2" d="M885,834v8h-1l-4-3-2-2h-5v2a5,5,0,0,0,1,3h-1a6,6,0,0,1-1-4,4,4,0,0,1,1-3h5l3,2,3,3h0v-7Z"/><path class="cls-2" d="M876,824h2v2h0v-2h5a5,5,0,0,1,1,4,7,7,0,0,1-1,3h-1v-3a5,5,0,0,0-1-3h-4a5,5,0,0,0-1,3h-1a4,4,0,0,0-1-2h-4v6h-1v-4a4,4,0,0,1,1-3Z"/><path class="cls-2" d="M885,813v8h-1l-4-3-2-2h-5v2a5,5,0,0,0,1,3h-1a6,6,0,0,1-1-4,4,4,0,0,1,1-3h5l3,2,3,3h0v-7Z"/><path class="cls-2" d="M542,732v7H529v-7h1v6h5v-6h1v6h6v-6Z"/><path class="cls-2" d="M541,730h0Z"/><path class="cls-2" d="M542,716h-6v8h-1v-7h7Z"/><path class="cls-2" d="M536,707v-5h6a11,11,0,0,1,1,4,6,6,0,0,1-2,5l-5,2h-3l-2-2a7,7,0,0,1-1-3,9,9,0,0,1,1-4h1a9,9,0,0,0-1,4,5,5,0,0,0,2,4l4,2h4a5,5,0,0,0,2-4,9,9,0,0,0,0-3h-4v4Z"/><path class="cls-2" d="M541,699h0Z"/><path class="cls-2" d="M542,688v8h-1l-4-3-2-2h-5v2a5,5,0,0,0,1,3h-1a6,6,0,0,1-1-4,4,4,0,0,1,1-3h5l3,2,3,3h0v-7Z"/><path class="cls-2" d="M542,677v8h-1l-4-3-2-2h-5v2a5,5,0,0,0,1,3h-1a6,6,0,0,1-1-4,4,4,0,0,1,1-3h5l3,2,3,3h0v-7Z"/><path class="cls-2" d="M532,667h2v2h0v-2h5a5,5,0,0,1,1,4,7,7,0,0,1-1,3h-1v-3a5,5,0,0,0-1-3h-4a5,5,0,0,0-1,3h-1a4,4,0,0,0-1-2h-4v6h-1v-4a4,4,0,0,1,1-3Z"/><path class="cls-2" d="M593,732v7H580v-7h1v6h5v-6h1v6h6v-6Z"/><path class="cls-2" d="M593,730h0Z"/><path class="cls-2" d="M593,716h-6v8h-1v-7h7Z"/><path class="cls-2" d="M587,707v-5h6a11,11,0,0,1,1,4,6,6,0,0,1-2,5l-5,2h-3l-2-2a7,7,0,0,1-1-3,9,9,0,0,1,1-4h1a9,9,0,0,0-1,4,5,5,0,0,0,2,4l4,2h4a5,5,0,0,0,2-4,9,9,0,0,0,0-3h-4v4Z"/><path class="cls-2" d="M593,699h0Z"/><path class="cls-2" d="M593,688v8h-1l-4-3-2-2h-5v2a5,5,0,0,0,1,3h-1a6,6,0,0,1-1-4,4,4,0,0,1,1-3h5l3,2,3,3h0v-7Z"/><path class="cls-2" d="M593,677v8h-1l-4-3-2-2h-5v2a5,5,0,0,0,1,3h-1a6,6,0,0,1-1-4,4,4,0,0,1,1-3h5l3,2,3,3h0v-7Z"/><path class="cls-2" d="M590,666v2h0v7h-1l-9-6h9v-2h1Zm-1,3h-6l7,5Z"/><path class="cls-2" d="M648,732v7H635v-7h1v6h5v-6h1v6h6v-6Z"/><path class="cls-2" d="M647,730h0Z"/><path class="cls-2" d="M648,716h-6v8h-1v-7h7Z"/><path class="cls-2" d="M641,707v-5h6a11,11,0,0,1,1,4,6,6,0,0,1-2,5l-5,2h-3l-2-2a7,7,0,0,1-1-3,9,9,0,0,1,1-4h1a9,9,0,0,0-1,4,5,5,0,0,0,2,4l4,2h4a5,5,0,0,0,2-4,9,9,0,0,0,0-3h-4v4Z"/><path class="cls-2" d="M647,699h0Z"/><path class="cls-2" d="M648,688v8h-1l-4-3-2-2h-5v2a5,5,0,0,0,1,3h-1a6,6,0,0,1-1-4,4,4,0,0,1,1-3h5l3,2,3,3h0v-7Z"/><path class="cls-2" d="M648,677v8h-1l-4-3-2-2h-5v2a5,5,0,0,0,1,3h-1a6,6,0,0,1-1-4,4,4,0,0,1,1-3h5l3,2,3,3h0v-7Z"/><path class="cls-2" d="M640,671a4,4,0,0,1,1-3h6a5,5,0,0,1,1,3v2h-1v-3a4,4,0,0,0-1-3h-5a5,5,0,0,0-1,3v2h-6v-6h1v5h5A9,9,0,0,1,640,671Z"/><path class="cls-2" d="M701,732v7H688v-7h1v6h5v-6h1v6h6v-6Z"/><path class="cls-2" d="M700,730h0Z"/><path class="cls-2" d="M701,716h-6v8h-1v-7h7Z"/><path class="cls-2" d="M694,707v-5h6a11,11,0,0,1,1,4,6,6,0,0,1-2,5l-5,2h-3l-2-2a7,7,0,0,1-1-3,9,9,0,0,1,1-4h1a9,9,0,0,0-1,4,5,5,0,0,0,2,4l4,2h4a5,5,0,0,0,2-4,9,9,0,0,0,0-3h-4v4Z"/><path class="cls-2" d="M700,699h0Z"/><path class="cls-2" d="M701,688v8h-1l-4-3-2-2h-5v2a5,5,0,0,0,1,3h-1a6,6,0,0,1-1-4,4,4,0,0,1,1-3h5l3,2,3,3h0v-7Z"/><path class="cls-2" d="M701,677v8h-1l-4-3-2-2h-5v2a5,5,0,0,0,1,3h-1a6,6,0,0,1-1-4,4,4,0,0,1,1-3h5l3,2,3,3h0v-7Z"/><path class="cls-2" d="M695,675h-4l-2-2a5,5,0,0,1-1-3h1a3,3,0,0,0,0,2,4,4,0,0,0,2,3h3v-2a4,4,0,0,1,1-3h6a4,4,0,0,1,1,3,4,4,0,0,1-1,3Zm5-4v-2h-5v4h6Z"/><path class="cls-2" d="M754,732v7H741v-7h1v6h5v-6h1v6h6v-6Z"/><path class="cls-2" d="M753,730h0Z"/><path class="cls-2" d="M754,716h-6v8h-1v-7h7Z"/><path class="cls-2" d="M747,707v-5h6a11,11,0,0,1,1,4,6,6,0,0,1-2,5l-5,2h-3l-2-2a7,7,0,0,1-1-3,9,9,0,0,1,1-4h1a9,9,0,0,0-1,4,5,5,0,0,0,2,4l4,2h4a5,5,0,0,0,2-4,9,9,0,0,0,0-3h-4v4Z"/><path class="cls-2" d="M753,699h0Z"/><path class="cls-2" d="M754,688v8h-1l-4-3-2-2h-5v2a5,5,0,0,0,1,3h-1a6,6,0,0,1-1-4,4,4,0,0,1,1-3h5l3,2,3,3h0v-7Z"/><path class="cls-2" d="M754,677v8h-1l-4-3-2-2h-5v2a5,5,0,0,0,1,3h-1a6,6,0,0,1-1-4,4,4,0,0,1,1-3h5l3,2,3,3h0v-7Z"/><path class="cls-2" d="M754,673l-12-5v7h-1v-8h1l12,5Z"/><path class="cls-2" d="M425,600H393v-3l14-14,8-9,3-6a17,17,0,0,0,1-6,10,10,0,0,0-3-7,11,11,0,0,0-8-3,20,20,0,0,0-12,5l-2-2a22,22,0,0,1,14-5c5,0,8,1,11,4s4,6,4,10a21,21,0,0,1-3,10c-2,3-5,7-9,12l-13,14h28v3Z"/><path class="cls-2" d="M436,597c0-2,1-3,3-3s3,1,3,3-1,3-3,3S436,600,436,597Z"/><path class="cls-2" d="M498,574c0,8-2,15-6,19s-10,7-17,7-13-2-17-7-6-11-6-19,2-15,6-19,10-7,17-7,13,2,17,7S498,566,498,574Zm-42,0c0,7,2,13,5,17s8,6,14,6,11-2,14-6,5-10,5-17-2-13-5-17-8-6-14-6-11,2-14,6S456,567,456,574Z"/><path class="cls-2" d="M531,574h19v23a43,43,0,0,1-17,3c-8,0-14-2-19-7s-6-11-6-19a30,30,0,0,1,3-14,23,23,0,0,1,9-9,28,28,0,0,1,14-3,35,35,0,0,1,15,3v3a32,32,0,0,0-14-3c-7,0-12,2-16,6s-6,10-6,17,2,14,6,18,9,6,17,6l12-2V578H531v-3Z"/><path class="cls-2" d="M638,216h-1l-3-10v0l-3,10h-1l-3-13h1l2,8h1v-4l2-8h1l3,9v3h0l3-10h1Z"/><path class="cls-2" d="M649,204l-4,2a6,6,0,0,0-1,4,6,6,0,0,0,1,4l4,2h0l-4-2a7,7,0,0,1-2-5,8,8,0,0,1,1-3l2-2h4Z"/><path class="cls-2" d="M687,216h-1l-3-10v0l-3,10h-1l-3-13h1l2,8h1v-4l2-8h1l3,9v3h0l3-10h1Z"/><path class="cls-2" d="M698,204l-4,2a6,6,0,0,0-1,4,6,6,0,0,0,1,4l4,2h0l-4-2a7,7,0,0,1-2-5,8,8,0,0,1,1-3l2-2h4Z"/><path class="cls-2" d="M379,702h-1l-3-10v0l-3,10h-1l-3-13h1l2,8h1v-4l2-8h1l3,9v3h0l3-10h1Z"/><path class="cls-2" d="M390,689l-4,2a6,6,0,0,0-1,4,6,6,0,0,0,1,4l4,2h0l-4-2a7,7,0,0,1-2-5,8,8,0,0,1,1-3l2-2h3Z"/><path class="cls-2" d="M433,701h-1l-3-10v0l-3,10h-1l-3-13h1l2,8h1v-4l2-8h1l3,9v3h0l3-10h1Z"/><path class="cls-2" d="M444,689l-4,2a6,6,0,0,0-1,4,6,6,0,0,0,1,4l4,2h0l-4-2a7,7,0,0,1-2-5,8,8,0,0,1,1-3l2-2h3Z"/><path class="cls-2" d="M278,294V281h1v12h-1Z"/><path class="cls-2" d="M286,281h0Zm1,12h-1V284h1Z"/><path class="cls-2" d="M294,285h-2v9h-1v-9h0a5,5,0,0,1,1-3h1v2h2Z"/><path class="cls-2" d="M299,293h-2v-8h0v-2h0v2h0v8Z"/><path class="cls-2" d="M1038,704h-7V691h1v5h0v6h6Z"/><path class="cls-2" d="M1041,704h0Z"/><path class="cls-2" d="M1055,704h-1v-6h-7v6h-1V691h1v6h8v-6h1Z"/><path class="cls-2" d="M1063,698h5v6h-4l-5-2a7,7,0,0,1-2-5,8,8,0,0,1,1-3l2-2h3l-4,2a6,6,0,0,0-1,4,6,6,0,0,0,1,4l4,2h3v-4h-4Z"/><path class="cls-2" d="M1071,704h0Z"/><path class="cls-2" d="M1083,704h-8l3-4,2-2h1v-2h1a3,3,0,0,1,1,3v3l-2,3-3,3h7Z"/><path class="cls-2" d="M1093,704h-8l3-4,2-2h1v-2h1a3,3,0,0,1,1,3v3l-2,3-3,3h7Z"/><path class="cls-2" d="M1103,697a10,10,0,0,1-1,4l-2,3h-3l3-2a8,8,0,0,0,1-5h-6a4,4,0,0,1-1-3,5,5,0,0,1,1-3h5l2,2A7,7,0,0,1,1103,697Zm-4-5h-2a4,4,0,0,0-1,3v2h6v-2h-3Z"/><path class="cls-2" d="M1045,850h-7V837h1v5h0v6h6Z"/><path class="cls-2" d="M1047,849h0Z"/><path class="cls-2" d="M1061,850h-1v-6h-7v6h-1V837h1v6h8v-6h1Z"/><path class="cls-2" d="M1070,844h5v6h-4l-5-2a7,7,0,0,1-2-5,8,8,0,0,1,1-3l2-2h3l-4,2a6,6,0,0,0-1,4,6,6,0,0,0,1,4l4,2h3v-4h-4Z"/><path class="cls-2" d="M1077,849h0Z"/><path class="cls-2" d="M1089,850h-8l3-4,2-2h1v-2h1a3,3,0,0,1,1,3v3l-2,3-3,3h7Z"/><path class="cls-2" d="M1099,840v2h0a3,3,0,0,1,1,2,3,3,0,0,1-1,3h-1a3,3,0,0,0,1-2v-2h0v-4h1A3,3,0,0,1,1099,840Z"/><path class="cls-2" d="M1110,844a9,9,0,0,1-1,5l-3,2-3-2a13,13,0,0,1,0-10l3-2,3,2A11,11,0,0,1,1110,844Zm-7,0a10,10,0,0,0,1,4h5a10,10,0,0,0,1-4,10,10,0,0,0-1-4h-2l-2,2A10,10,0,0,0,1103,844Z"/><path class="cls-2" d="M608,850h-7V837h1v5h0v6h6Z"/><path class="cls-2" d="M610,849h0Z"/><path class="cls-2" d="M624,850h-1v-6h-7v6h-1V837h1v6h8v-6h1Z"/><path class="cls-2" d="M633,844h5v6h-4l-5-2a7,7,0,0,1-2-5,8,8,0,0,1,1-3l2-2h3l-4,2a6,6,0,0,0-1,4,6,6,0,0,0,1,4l4,2h3v-4h-4Z"/><path class="cls-2" d="M640,849h0Z"/><path class="cls-2" d="M652,850h-8l3-4,2-2h1v-2h1a3,3,0,0,1,1,3v3l-2,3-3,3h7Z"/><path class="cls-2" d="M662,840v2h0a3,3,0,0,1,1,2,3,3,0,0,1-1,3h-1a3,3,0,0,0,1-2v-2h0v-4h1A3,3,0,0,1,662,840Z"/><path class="cls-2" d="M669,842h3a3,3,0,0,1,1,3,4,4,0,0,1-1,3h-1a3,3,0,0,0,1-2,2,2,0,0,0-1-2h-6v-6h1v5Z"/><path class="cls-2" d="M398,464h-7V451h1v5h0v6h6Z"/><path class="cls-2" d="M401,464h0Z"/><path class="cls-2" d="M415,464h-1v-6h-7v6h-1V451h1v6h8v-6h1Z"/><path class="cls-2" d="M423,458h5v6h-4l-5-2a7,7,0,0,1-2-5,8,8,0,0,1,1-3l2-2h3l-4,2a6,6,0,0,0-1,4,6,6,0,0,0,1,4l4,2h3v-4h-4Z"/><path class="cls-2" d="M431,464h0Z"/><path class="cls-2" d="M443,464h-8l3-4,2-2h1v-2h1a3,3,0,0,1,1,3v3l-2,3-3,3h7Z"/><path class="cls-2" d="M453,464h-8l3-4,2-2h1v-2h1a3,3,0,0,1,1,3v3l-2,3-3,3h7Z"/><path class="cls-2" d="M460,464h-1v-9a23,23,0,0,1,0-3h0l-3,2h0l4-3h1v13Z"/><path class="cls-2" d="M511,464h-7V451h1v5h0v6h6Z"/><path class="cls-2" d="M513,464h0Z"/><path class="cls-2" d="M527,464h-1v-6h-7v6h-1V451h1v6h8v-6h1Z"/><path class="cls-2" d="M536,458h5v6h-4l-5-2a7,7,0,0,1-2-5,8,8,0,0,1,1-3l2-2h3l-4,2a6,6,0,0,0-1,4,6,6,0,0,0,1,4l4,2h3v-4h-4Z"/><path class="cls-2" d="M544,464h0Z"/><path class="cls-2" d="M556,464h-8l3-4,2-2h1v-2h1a3,3,0,0,1,1,3v3l-2,3-3,3h7Z"/><path class="cls-2" d="M566,464h-8l3-4,2-2h1v-2h1a3,3,0,0,1,1,3v3l-2,3-3,3h7Z"/><path class="cls-2" d="M576,458a9,9,0,0,1-1,5l-3,2-3-2a13,13,0,0,1,0-10l3-2,3,2A10,10,0,0,1,576,458Zm-7,0a10,10,0,0,0,1,4h5a10,10,0,0,0,1-4,10,10,0,0,0-1-4h-2l-2,2A10,10,0,0,0,569,458Z"/><path class="cls-2" d="M640,464h-7V451h1v5h0v6h6Z"/><path class="cls-2" d="M642,464h0Z"/><path class="cls-2" d="M656,464h-1v-6h-7v6h-1V451h1v6h8v-6h1v13Z"/><path class="cls-2" d="M665,458h5v6h-4l-5-2a7,7,0,0,1-2-5,8,8,0,0,1,1-3l2-2h3l-4,2a6,6,0,0,0-1,4,6,6,0,0,0,1,4l4,2h3v-4h-4Z"/><path class="cls-2" d="M673,464h0Z"/><path class="cls-2" d="M685,464h-8l3-4,2-2h1v-2h1a3,3,0,0,1,1,3v3l-2,3-3,3h7Z"/><path class="cls-2" d="M692,464h-1v-9a23,23,0,0,1,0-3h0l-3,2h0l4-3h1v13Z"/><path class="cls-2" d="M705,457a10,10,0,0,1-1,4l-2,3h-3l3-2a8,8,0,0,0,1-5h-6a4,4,0,0,1-1-3,5,5,0,0,1,1-3h5l2,2A7,7,0,0,1,705,457Zm-4-5h-2a4,4,0,0,0-1,3v2h6v-2h-3Z"/><path class="cls-2" d="M767,464h-7V451h1v5h0v6h6Z"/><path class="cls-2" d="M769,464h0Z"/><path class="cls-2" d="M783,464h-1v-6h-7v6h-1V451h1v6h8v-6h1v13Z"/><path class="cls-2" d="M792,458h5v6h-4l-5-2a7,7,0,0,1-2-5,8,8,0,0,1,1-3l2-2h3l-4,2a6,6,0,0,0-1,4,6,6,0,0,0,1,4l4,2h3v-4h-4Z"/><path class="cls-2" d="M799,464h0Z"/><path class="cls-2" d="M811,464h-8l3-4,2-2h1v-2h1a3,3,0,0,1,1,3v3l-2,3-3,4h7Z"/><path class="cls-2" d="M818,464h-1v-9a23,23,0,0,1,0-3h0l-3,2h0l4-3h1v13Z"/><path class="cls-2" d="M828,451h3v4h-2l2,2v2a3,3,0,0,1-1,3h-6a3,3,0,0,1-1-3v-2h0v-3h3Zm-3,10v2h5v-4h-5A2,2,0,0,0,825,461Zm3-9h-2v2h5v-3Z"/><path class="cls-2" d="M930,464h-7V451h1v5h0v6h6Z"/><path class="cls-2" d="M933,464h0Z"/><path class="cls-2" d="M946,464h-1v-6h-7v6h-1V451h1v6h8v-6h1Z"/><path class="cls-2" d="M955,458h5v6h-4l-5-2a7,7,0,0,1-2-5,8,8,0,0,1,1-3l2-2h3l-4,2a6,6,0,0,0-1,4,6,6,0,0,0,1,4l4,2h3v-4h-4Z"/><path class="cls-2" d="M963,464h0Z"/><path class="cls-2" d="M975,464h-8l3-4,2-2h1v-2h1a3,3,0,0,1,1,3v3l-2,3-3,3h7Z"/><path class="cls-2" d="M982,464h-1v-9a23,23,0,0,1,0-3h0l-3,2h0l4-3h1v13Z"/><path class="cls-2" d="M989,464l5-12h1l-5,12Z"/><path class="cls-2" d="M1002,455h3a7,7,0,0,1,0,7h-7V451h1v3h3Zm0,1h-2a5,5,0,0,0-1,3h0a5,5,0,0,0,1,3h5a5,5,0,0,0,1-3C1005,457,1004,455,1002,455Z"/><path class="cls-2" d="M1041,464h-7V451h1v5h0v6h6Z"/><path class="cls-2" d="M1044,464h0Z"/><path class="cls-2" d="M1058,464h-1v-6h-7v6h-1V451h1v6h8v-6h1Z"/><path class="cls-2" d="M1067,458h5v6h-4l-5-2a7,7,0,0,1-2-5,8,8,0,0,1,1-3l2-2h3l-4,2a6,6,0,0,0-1,4,6,6,0,0,0,1,4l4,2h3v-4h-4Z"/><path class="cls-2" d="M1074,464h0Z"/><path class="cls-2" d="M1086,464h-8l3-4,2-2h1v-2h1a3,3,0,0,1,1,3v3l-2,3-3,3h7Z"/><path class="cls-2" d="M1093,464h-1v-9a23,23,0,0,1,0-3h0l-3,2h0l4-3h1Z"/><path class="cls-2" d="M1100,464l5-12h1l-5,12Z"/><path class="cls-2" d="M1115,464h-6v-4h5v-2h1a3,3,0,0,1,1,3v6Zm-3-1h2v-2h-5v2h2Z"/><path class="cls-2" d="M824,333h-7V320h1v5h0v6h6Z"/><path class="cls-2" d="M826,332h0Z"/><path class="cls-2" d="M840,333h-1v-6h-7v6h-1V320h1v6h8v-6h1Z"/><path class="cls-2" d="M849,326h5v6h-4l-5-2a7,7,0,0,1-2-5,8,8,0,0,1,1-3l2-2h3l-4,2a6,6,0,0,0-1,4,6,6,0,0,0,1,4l4,2h3v-4h-4Z"/><path class="cls-2" d="M856,332h0Z"/><path class="cls-2" d="M868,333h-8l3-4,2-2h1v-2h1a3,3,0,0,1,1,3v3l-2,3-3,3h7Z"/><path class="cls-2" d="M876,333h-1v-9a23,23,0,0,1,0-3h0l-3,2h0l4-3h1v13Z"/><path class="cls-2" d="M890,329h-2v3h-1v-3h-7l6-9h1v9h2Zm-3-1v-4c0-2,0-3,0-4h0v2l-4,7Z"/><path class="cls-2" d="M910,333h-7V320h1v5h0v6h6Z"/><path class="cls-2" d="M912,332h0Z"/><path class="cls-2" d="M926,333h-1v-6h-7v6h-1V320h1v6h8v-6h1Z"/><path class="cls-2" d="M935,326h5v6h-4l-5-2a7,7,0,0,1-2-5,8,8,0,0,1,1-3l2-2h3l-4,2a6,6,0,0,0-1,4,6,6,0,0,0,1,4l4,2h3v-4h-4Z"/><path class="cls-2" d="M942,332h0Z"/><path class="cls-2" d="M954,333h-8l3-4,2-2h1v-2h1a3,3,0,0,1,1,3v3l-2,3-3,3h7Z"/><path class="cls-2" d="M961,333h-1v-9a23,23,0,0,1,0-3h0l-3,2h0l4-3h1v13Z"/><path class="cls-2" d="M970,325h3a4,4,0,0,1,1,3,4,4,0,0,1-1,3h-1a3,3,0,0,0,1-2,2,2,0,0,0-1-2h-6v-6h1v5Z"/><path class="cls-2" d="M1023,333h-7V320h1v5h0v6h6Z"/><path class="cls-2" d="M1026,332h0Z"/><path class="cls-2" d="M1040,333h-1v-6h-7v6h-1V320h1v6h8v-6h1Z"/><path class="cls-2" d="M1048,326h5v6h-4l-5-2a7,7,0,0,1-2-5,8,8,0,0,1,1-3l2-2h3l-4,2a6,6,0,0,0-1,4,6,6,0,0,0,1,4l4,2h3v-4h-4Z"/><path class="cls-2" d="M1056,332h0Z"/><path class="cls-2" d="M1068,333h-8l3-4,2-2h1v-2h1a3,3,0,0,1,1,3v3l-2,3-3,3h7Z"/><path class="cls-2" d="M1075,333h-1v-9a23,23,0,0,1,0-3h0l-3,2h0l4-3h1Z"/><path class="cls-2" d="M1080,327a10,10,0,0,1,1-4l2-2h3l-3,2a8,8,0,0,0-1,5h6a4,4,0,0,1,1,3,5,5,0,0,1-1,3h-6C1081,330,1080,329,1080,327Zm4,5h2a4,4,0,0,0,1-3v-2h-6v2h3Z"/><path class="cls-2" d="M360,239h-7V226h1v5h0v6h6Z"/><path class="cls-2" d="M362,239h0Z"/><path class="cls-2" d="M376,239h-1v-6h-7v6h-1V226h1v6h8v-6h1v13Z"/><path class="cls-2" d="M385,233h5v6h-4l-5-2a7,7,0,0,1-2-5,8,8,0,0,1,1-3l2-2h3l-4,2a6,6,0,0,0-1,4,6,6,0,0,0,1,4l4,2h3v-4h-4Z"/><path class="cls-2" d="M393,239h0Z"/><path class="cls-2" d="M405,239h-8l3-4,2-2h1v-2h1a3,3,0,0,1,1,3v3l-2,3-3,3h7Z"/><path class="cls-2" d="M412,239h-1v-9a23,23,0,0,1,0-3h0l-3,2h0l4-3h1Z"/><path class="cls-2" d="M425,233a9,9,0,0,1-1,5l-3,2-3-2a13,13,0,0,1,0-10l3-2,3,2A10,10,0,0,1,425,233Zm-7,0a10,10,0,0,0,1,4h5a10,10,0,0,0,1-4,10,10,0,0,0-1-4h-2l-2,2A10,10,0,0,0,418,233Z"/><path class="cls-2" d="M446,239h-7V226h1v5h0v6h6Z"/><path class="cls-2" d="M448,239h0Z"/><path class="cls-2" d="M462,239h-1v-6h-7v6h-1V226h1v6h8v-6h1Z"/><path class="cls-2" d="M471,233h5v6h-4l-5-2a7,7,0,0,1-2-5,8,8,0,0,1,1-3l2-2h3l-4,2a6,6,0,0,0-1,4,6,6,0,0,0,1,4l4,2h3v-4h-4Z"/><path class="cls-2" d="M479,239h0Z"/><path class="cls-2" d="M491,239h-8l3-4,2-2h1v-2h1a3,3,0,0,1,1,3v3l-2,3-3,3h7Z"/><path class="cls-2" d="M501,233a9,9,0,0,1-1,5l-3,2-3-2a13,13,0,0,1,0-10l3-2,3,2A10,10,0,0,1,501,233Zm-7,0a10,10,0,0,0,1,4h5a10,10,0,0,0,1-4,10,10,0,0,0-1-4h-2l-2,2A10,10,0,0,0,494,233Z"/><path class="cls-2" d="M511,232a10,10,0,0,1-1,4l-2,3h-3l3-2a8,8,0,0,0,1-5h-6a4,4,0,0,1-1-3,5,5,0,0,1,1-3h5l2,2A7,7,0,0,1,511,232Zm-4-5h-2a4,4,0,0,0-1,3v2h6v-2h-3Z"/><path class="cls-2" d="M537,239h-7V226h1v5h0v6h6Z"/><path class="cls-2" d="M540,239h0Z"/><path class="cls-2" d="M554,239h-1v-6h-7v6h-1V226h1v6h8v-6h1Z"/><path class="cls-2" d="M563,233h5v6h-4l-5-2a7,7,0,0,1-2-5,8,8,0,0,1,1-3l2-2h3l-4,2a6,6,0,0,0-1,4,6,6,0,0,0,1,4l4,2h3v-4h-4Z"/><path class="cls-2" d="M570,239h0Z"/><path class="cls-2" d="M582,239h-8l3-4,2-2h1v-2h1a3,3,0,0,1,1,3v3l-2,3-3,3h7Z"/><path class="cls-2" d="M593,233a9,9,0,0,1-1,5l-3,2-3-2a13,13,0,0,1,0-10l3-2,3,2A10,10,0,0,1,593,233Zm-7,0a10,10,0,0,0,1,4h5a10,10,0,0,0,1-4,10,10,0,0,0-1-4h-2l-2,2A10,10,0,0,0,585,233Z"/><path class="cls-2" d="M599,226h3v4h-2l2,2v2a3,3,0,0,1-1,3h-6a3,3,0,0,1-1-3v-2h0v-3h3Zm-3,10v2h5v-4h-5A2,2,0,0,0,596,236Zm3-9h-2v2h5v-3Z"/><path class="cls-2" d="M436,62h-7V49h1v5h0v6h6Z"/><path class="cls-2" d="M438,61h0Z"/><path class="cls-2" d="M452,62h-1V56h-7v6h-1V49h1v6h8V49h1Z"/><path class="cls-2" d="M461,55h5v6h-4l-5-2a7,7,0,0,1-2-5,8,8,0,0,1,1-3l2-2h3l-4,2a6,6,0,0,0-1,4,6,6,0,0,0,1,4l4,2h3V56h-4Z"/><path class="cls-2" d="M469,61h0Z"/><path class="cls-2" d="M481,62h-8l3-4,2-2h1V50h1a3,3,0,0,1,1,3v3l-2,3-3,3h7Z"/><path class="cls-2" d="M491,55a9,9,0,0,1-1,5l-3,2-3-2a10,10,0,0,1-1-5,10,10,0,0,1,1-5l3-2,3,2A10,10,0,0,1,491,55Zm-7,0a10,10,0,0,0,1,4h5a10,10,0,0,0,1-4,10,10,0,0,0-1-4h-5A10,10,0,0,0,484,55Z"/><path class="cls-2" d="M501,62h-8l3-4,2-2h1V50h1a3,3,0,0,1,1,3v3l-2,3-3,3h7Z"/><path class="cls-2" d="M542,62h-7V49h1v5h0v6h6Z"/><path class="cls-2" d="M544,61h0Z"/><path class="cls-2" d="M558,62h-1V56h-7v6h-1V49h1v6h8V49h1Z"/><path class="cls-2" d="M567,55h5v6h-4l-5-2a7,7,0,0,1-2-5,8,8,0,0,1,1-3l2-2h3l-4,2a6,6,0,0,0-1,4,6,6,0,0,0,1,4l4,2h3V56h-4Z"/><path class="cls-2" d="M575,61h0Z"/><path class="cls-2" d="M587,62h-8l3-4,2-2h1V50h1a3,3,0,0,1,1,3v3l-2,3-3,3h7Z"/><path class="cls-2" d="M597,55a9,9,0,0,1-1,5l-3,2-3-2a10,10,0,0,1-1-5,10,10,0,0,1,1-5l3-2,3,2A10,10,0,0,1,597,55Zm-7,0a10,10,0,0,0,1,4h5a10,10,0,0,0,1-4,10,10,0,0,0-1-4h-5A10,10,0,0,0,590,55Z"/><path class="cls-2" d="M607,52v2h0a3,3,0,0,1,1,2,3,3,0,0,1-1,3h-1V56h0V50h1A3,3,0,0,1,607,52Z"/><path class="cls-2" d="M648,62h-7V49h1v5h0v6h6Z"/><path class="cls-2" d="M650,61h0Z"/><path class="cls-2" d="M664,62h-1V56h-7v6h-1V49h1v6h8V49h1Z"/><path class="cls-2" d="M673,55h5v6h-4l-5-2a7,7,0,0,1-2-5,8,8,0,0,1,1-3l2-2h3l-4,2a6,6,0,0,0-1,4,6,6,0,0,0,1,4l4,2h3V56h-4Z"/><path class="cls-2" d="M681,61h0Z"/><path class="cls-2" d="M693,62h-8l3-4,2-2h1V50h1a3,3,0,0,1,1,3v3l-2,3-3,3h7Z"/><path class="cls-2" d="M703,55a9,9,0,0,1-1,5l-3,2-3-2a10,10,0,0,1-1-5,10,10,0,0,1,1-5l3-2,3,2A10,10,0,0,1,703,55Zm-7,0a10,10,0,0,0,1,4h5a10,10,0,0,0,1-4,10,10,0,0,0-1-4h-5A10,10,0,0,0,696,55Z"/><path class="cls-2" d="M714,59h-2v3h-1V59h-7l6-9h1v9h2Zm-3-1V54c0-2,0-3,0-4h0v2l-4,7Z"/><path class="cls-2" d="M910,62h-7V49h1v5h0v6h6Z"/><path class="cls-2" d="M912,61h0Z"/><path class="cls-2" d="M926,62h-1V56h-7v6h-1V49h1v6h8V49h1Z"/><path class="cls-2" d="M935,55h5v6h-4l-5-2a7,7,0,0,1-2-5,8,8,0,0,1,1-3l2-2h3l-4,2a6,6,0,0,0-1,4,6,6,0,0,0,1,4l4,2h3V56h-4Z"/><path class="cls-2" d="M942,61h0Z"/><path class="cls-2" d="M954,62h-8l3-4,2-2h1V50h1a3,3,0,0,1,1,3v3l-2,3-3,3h7Z"/><path class="cls-2" d="M965,55a9,9,0,0,1-1,5l-3,2-3-2a10,10,0,0,1-1-5,10,10,0,0,1,1-5l3-2,3,2A10,10,0,0,1,965,55Zm-7,0a10,10,0,0,0,1,4h5a10,10,0,0,0,1-4,10,10,0,0,0-1-4h-2l-2,2A10,10,0,0,0,958,55Z"/><path class="cls-2" d="M967,56a10,10,0,0,1,1-4l2-2h3l-3,2a8,8,0,0,0-1,5h6a4,4,0,0,1,1,3,5,5,0,0,1-1,3h-6C967,60,967,58,967,56Zm4,5h2a4,4,0,0,0,1-3V56h-6v2h3Z"/><path class="cls-2" d="M1038,62h-7V49h1v5h0v6h6Z"/><path class="cls-2" d="M1041,61h0Z"/><path class="cls-2" d="M1055,62h-1V56h-7v6h-1V49h1v6h8V49h1Z"/><path class="cls-2" d="M1063,55h5v6h-4l-5-2a7,7,0,0,1-2-5,8,8,0,0,1,1-3l2-2h3l-4,2a6,6,0,0,0-1,4,6,6,0,0,0,1,4l4,2h3V56h-4Z"/><path class="cls-2" d="M1071,61h0Z"/><path class="cls-2" d="M1083,62h-8l3-4,2-2h1V50h1a3,3,0,0,1,1,3v3l-2,3-3,3h7Z"/><path class="cls-2" d="M1093,55a9,9,0,0,1-1,5l-3,2-3-2a10,10,0,0,1-1-5,10,10,0,0,1,1-5l3-2,3,2A10,10,0,0,1,1093,55Zm-7,0a10,10,0,0,0,1,4h5a10,10,0,0,0,1-4,10,10,0,0,0-1-4h-2l-2,2A10,10,0,0,0,1086,55Z"/><path class="cls-2" d="M1097,62l5-12h1l-5,12Z"/></g></svg>