<?xml version="1.0" encoding="utf-8"?>
<!-- Generator: Adobe Illustrator 21.0.2, SVG Export Plug-In . SVG Version: 6.00 Build 0)  -->
<svg version="1.1" id="Ebene_1" xmlns="http://www.w3.org/2000/svg" xmlns:xlink="http://www.w3.org/1999/xlink" x="0px" y="0px"
	 viewBox="0 0 1280 1024" style="enable-background:new 0 0 1280 1024;" xml:space="preserve">
<style type="text/css">
	.st0{fill:#FFFFFF;}
	.st1{fill:#2E3192;}
	.st2{fill:none;stroke:#2E3192;stroke-miterlimit:10;}
	.st3{fill:#FFFFFF;stroke:#2E3192;stroke-miterlimit:10;}
	.st4{fill:none;}
	.st5{font-family:'MyriadPro-Regular';}
	.st6{font-size:14px;}
	.st7{fill:none;stroke:#2E3192;stroke-miterlimit:10;stroke-dasharray:12,12;}
	.st8{fill:none;stroke:#2E3192;stroke-width:5;stroke-miterlimit:10;}
	.st9{font-size:17px;}
	.st10{font-size:26px;}
</style>
<g>
	<g>
		<rect x="1077.5" y="71.5" class="st0" width="146" height="146"/>
		<path class="st1" d="M1223,72v145h-145V72H1223 M1224,71h-147v147h147V71L1224,71z"/>
	</g>
	<g>
		<rect x="395.5" y="71.5" class="st0" width="103" height="146"/>
		<path class="st1" d="M498,72v145H396V72H498 M499,71H395v147h104V71L499,71z"/>
	</g>
	<g>
		<rect x="450.5" y="287.5" class="st0" width="51" height="146"/>
		<path class="st1" d="M501,288v145h-50V288H501 M502,287h-52v147h52V287L502,287z"/>
	</g>
	<g>
		<rect x="398.5" y="287.5" class="st0" width="51" height="146"/>
		<path class="st1" d="M449,288v145h-50V288H449 M450,287h-52v147h52V287L450,287z"/>
	</g>
	<g>
		<rect x="346.5" y="287.5" class="st0" width="51" height="109"/>
		<path class="st1" d="M397,288v108h-50V288H397 M398,287h-52v110h52V287L398,287z"/>
	</g>
	<g>
		<rect x="346.5" y="396.5" class="st0" width="51" height="37"/>
		<path class="st1" d="M397,397v36h-50v-36H397 M398,396h-52v38h52V396L398,396z"/>
	</g>
	<g>
		<rect x="294.5" y="287.5" class="st0" width="51" height="146"/>
		<path class="st1" d="M345,288v145h-50V288H345 M346,287h-52v147h52V287L346,287z"/>
	</g>
	<g>
		<rect x="292.5" y="71.5" class="st0" width="103" height="146"/>
		<path class="st1" d="M395,72v145H293V72H395 M396,71H292v147h104V71L396,71z"/>
	</g>
	<g>
		<rect x="499.5" y="71.5" class="st0" width="291" height="146"/>
		<path class="st1" d="M790,72v145H500V72H790 M791,71H499v147h292V71L791,71z"/>
	</g>
	<g>
		<rect x="790.5" y="71.5" class="st0" width="287" height="146"/>
		<path class="st1" d="M1077,72v145H791V72H1077 M1078,71H790v147h288V71L1078,71z"/>
	</g>
	<g>
		<rect x="1077.5" y="287.5" class="st0" width="146" height="146"/>
		<path class="st1" d="M1223,288v145h-145V288H1223 M1224,287h-147v147h147V287L1224,287z"/>
	</g>
	<g>
		<rect x="790.5" y="287.5" class="st0" width="287" height="146"/>
		<path class="st1" d="M1077,288v145H791V288H1077 M1078,287H790v147h288V287L1078,287z"/>
	</g>
	<g>
		<rect x="502.5" y="287.5" class="st0" width="287" height="146"/>
		<path class="st1" d="M789,288v145H503V288H789 M790,287H502v147h288V287L790,287z"/>
	</g>
	<g>
		<line class="st2" x1="294.5" y1="433.5" x2="294.5" y2="862.5"/>
	</g>
	<rect x="72.5" y="647.5" class="st3" width="145" height="215"/>
	<line class="st2" x1="72.5" y1="502.5" x2="144.5" y2="502.5"/>
	<line class="st2" x1="144.5" y1="647.5" x2="144.5" y2="502.5"/>
	<line class="st2" x1="217.5" y1="502.5" x2="144.5" y2="502.5"/>
	<line class="st2" x1="292.5" y1="502.5" x2="281.5" y2="502.5"/>
	<path class="st2" d="M72.5,502.5c3.2-57.4,8.8-118.9,18-184c12.9-91.4,30.5-174.7,50-249"/>
	<line class="st2" x1="140.5" y1="69.5" x2="140.5" y2="144.5"/>
	<line class="st2" x1="217.5" y1="144.5" x2="140.5" y2="144.5"/>
	<rect x="217.5" y="98.5" class="st2" width="75" height="46"/>
	
		<rect x="171.5" y="218.2" transform="matrix(0.9882 0.1531 -0.1531 0.9882 42.4675 -25.8279)" class="st2" width="35" height="89.4"/>
	
		<rect x="155.6" y="322.8" transform="matrix(0.9882 0.1531 -0.1531 0.9882 58.2792 -22.1716)" class="st2" width="35" height="89.4"/>
	<line class="st2" x1="196.5" y1="219.5" x2="182.5" y2="307.5"/>
	<line class="st2" x1="180.5" y1="323.5" x2="166.5" y2="411.5"/>
	<line class="st2" x1="176.5" y1="226.5" x2="211.5" y2="231.5"/>
	<line class="st2" x1="174.5" y1="239.5" x2="209.5" y2="244.5"/>
	<line class="st2" x1="173.5" y1="250.5" x2="208.5" y2="255.5"/>
	<line class="st2" x1="171.5" y1="261.5" x2="206.5" y2="266.5"/>
	<line class="st2" x1="169.5" y1="271.5" x2="204.5" y2="276.5"/>
	<line class="st2" x1="168.5" y1="281.5" x2="203.5" y2="286.5"/>
	<line class="st2" x1="166.5" y1="292.5" x2="201.5" y2="297.5"/>
	<line class="st2" x1="160.5" y1="331.5" x2="195.5" y2="336.5"/>
	<line class="st2" x1="158.5" y1="344.5" x2="193.5" y2="349.5"/>
	<line class="st2" x1="157.5" y1="355.5" x2="192.5" y2="360.5"/>
	<line class="st2" x1="155.5" y1="366.5" x2="190.5" y2="371.5"/>
	<line class="st2" x1="153.5" y1="376.5" x2="188.5" y2="381.5"/>
	<line class="st2" x1="152.5" y1="386.5" x2="187.5" y2="391.5"/>
	<line class="st2" x1="150.5" y1="397.5" x2="185.5" y2="402.5"/>
	<rect x="303.7" y="113.7" class="st4" width="82.7" height="28"/>
	<text transform="matrix(1 0 0 1 314.6763 123.6064)"><tspan x="0" y="0" class="st1 st5 st6">Lektoren-</tspan><tspan x="6.8" y="16.8" class="st1 st5 st6">zimmer</tspan></text>
	<rect x="318.3" y="151.7" class="st4" width="53.7" height="18.3"/>
	<text transform="matrix(1 0 0 1 322.8862 161.6064)" class="st1 st5 st6">ST.2.04</text>
	<rect x="334.7" y="452.7" class="st4" width="82.7" height="28"/>
	<text transform="matrix(1 0 0 1 345.7881 462.6064)" class="st1 st5 st6">Putzraum</text>
	<rect x="349.3" y="468.7" class="st4" width="53.7" height="18.3"/>
	<text transform="matrix(1 0 0 1 353.8862 478.6064)" class="st1 st5 st6">ST.2.14</text>
	<rect x="408.7" y="113.7" class="st4" width="82.7" height="28"/>
	<text transform="matrix(1 0 0 1 435.377 123.6064)" class="st1 st5 st6">Büro</text>
	<rect x="423.3" y="151.7" class="st4" width="53.7" height="18.3"/>
	<text transform="matrix(1 0 0 1 427.8862 161.6064)" class="st1 st5 st6">ST.2.05</text>
	<rect x="531.7" y="113.7" class="st4" width="82.7" height="28"/>
	<text transform="matrix(1 0 0 1 558.377 123.6064)" class="st1 st5 st6">Büro</text>
	<rect x="546.3" y="151.7" class="st4" width="53.7" height="18.3"/>
	<text transform="matrix(1 0 0 1 550.8862 161.6064)" class="st1 st5 st6">ST.2.06</text>
	<rect x="675.7" y="113.7" class="st4" width="82.7" height="28"/>
	<text transform="matrix(1 0 0 1 702.377 123.6064)" class="st1 st5 st6">Büro</text>
	<rect x="690.3" y="151.7" class="st4" width="53.7" height="18.3"/>
	<text transform="matrix(1 0 0 1 691.2324 161.6064)" class="st1 st5 st6">ST.2.06a</text>
	<rect x="892.7" y="113.7" class="st4" width="82.7" height="28"/>
	<text transform="matrix(1 0 0 1 913.2803 123.6064)" class="st1 st5 st6">Sem. 5</text>
	<rect x="907.3" y="151.7" class="st4" width="53.7" height="18.3"/>
	<text transform="matrix(1 0 0 1 911.8862 161.6064)" class="st1 st5 st6">ST.2.07</text>
	<rect x="1109.7" y="113.7" class="st4" width="82.7" height="28"/>
	<text transform="matrix(1 0 0 1 1130.2803 123.6064)" class="st1 st5 st6">Sem. 6</text>
	<rect x="1124.3" y="151.7" class="st4" width="53.7" height="18.3"/>
	<text transform="matrix(1 0 0 1 1128.8862 161.6064)" class="st1 st5 st6">ST.2.08</text>
	<rect x="1109.7" y="332.7" class="st4" width="82.7" height="28"/>
	<text transform="matrix(1 0 0 1 1130.2803 342.6064)" class="st1 st5 st6">Sem. 7</text>
	<rect x="1124.3" y="370.7" class="st4" width="53.7" height="18.3"/>
	<text transform="matrix(1 0 0 1 1128.8862 380.6064)" class="st1 st5 st6">ST.2.09</text>
	<rect x="892.7" y="335.7" class="st4" width="82.7" height="28"/>
	<text transform="matrix(1 0 0 1 913.2803 345.6064)" class="st1 st5 st6">Sem. 8</text>
	<rect x="907.3" y="373.7" class="st4" width="53.7" height="18.3"/>
	<text transform="matrix(1 0 0 1 911.8862 383.6064)" class="st1 st5 st6">ST.2.10</text>
	<rect x="603.7" y="332.7" class="st4" width="82.7" height="28"/>
	<text transform="matrix(1 0 0 1 624.2803 342.6064)" class="st1 st5 st6">Sem. 9</text>
	<rect x="618.3" y="370.7" class="st4" width="53.7" height="18.3"/>
	<text transform="matrix(1 0 0 1 622.8862 380.6064)" class="st1 st5 st6">ST.2.11</text>
	<rect x="102.7" y="733.7" class="st4" width="82.7" height="28"/>
	<text transform="matrix(1 0 0 1 119.1714 743.6064)" class="st1 st5 st6">Bespr. 3</text>
	<rect x="117.3" y="771.7" class="st4" width="53.7" height="18.3"/>
	<text transform="matrix(1 0 0 1 121.8862 781.6064)" class="st1 st5 st6">ST.2.01</text>
	<rect x="452" y="332.7" class="st4" width="48" height="28"/>
	<text transform="matrix(1 0 0 1 458.4653 342.6064)" class="st1 st5 st6">WC-H</text>
	<rect x="448.3" y="370.7" class="st4" width="53.7" height="18.3"/>
	<text transform="matrix(1 0 0 1 452.8862 380.6064)" class="st1 st5 st6">ST.2.12</text>
	<rect x="400" y="332.7" class="st4" width="48" height="28"/>
	<text transform="matrix(1 0 0 1 406.3672 342.6064)" class="st1 st5 st6">WC-D</text>
	<rect x="396.3" y="370.7" class="st4" width="53.7" height="18.3"/>
	<text transform="matrix(1 0 0 1 400.8862 380.6064)" class="st1 st5 st6">ST.2.13</text>
	<rect x="348" y="332.7" class="st4" width="48" height="28"/>
	<text transform="matrix(1 0 0 1 354.4932 342.6064)" class="st1 st5 st6">Lager</text>
	<rect x="344.3" y="370.7" class="st4" width="53.7" height="18.3"/>
	<text transform="matrix(1 0 0 1 348.8862 380.6064)" class="st1 st5 st6">ST.2.15</text>
	<g>
		<g>
			<line class="st2" x1="643.5" y1="72.5" x2="643.5" y2="78.5"/>
			<line class="st7" x1="643.5" y1="90.5" x2="643.5" y2="204.5"/>
			<line class="st2" x1="643.5" y1="210.5" x2="643.5" y2="216.5"/>
		</g>
	</g>
	<line class="st2" x1="376" y1="446" x2="372" y2="418"/>
	<line class="st8" x1="365" y1="217.5" x2="383" y2="217.5"/>
	<line class="st8" x1="410" y1="217.5" x2="428" y2="217.5"/>
	<line class="st8" x1="741" y1="217.5" x2="759" y2="217.5"/>
	<line class="st8" x1="1032" y1="217.5" x2="1050" y2="217.5"/>
	<line class="st8" x1="1113" y1="217.5" x2="1131" y2="217.5"/>
	<line class="st8" x1="1099" y1="286.5" x2="1117" y2="286.5"/>
	<line class="st8" x1="998" y1="286.5" x2="1016" y2="286.5"/>
	<line class="st8" x1="717" y1="286.5" x2="735" y2="286.5"/>
	<line class="st8" x1="476" y1="286.5" x2="494" y2="286.5"/>
	<line class="st8" x1="411" y1="286.5" x2="429" y2="286.5"/>
	<line class="st8" x1="360" y1="286.5" x2="378" y2="286.5"/>
	<line class="st8" x1="398" y1="423.5" x2="398" y2="405.5"/>
	<line class="st8" x1="218" y1="820.5" x2="218" y2="802.5"/>
	<line class="st8" x1="218" y1="708.5" x2="218" y2="690.5"/>
	<line class="st8" x1="144.5" y1="595" x2="144.5" y2="556"/>
	<rect x="38" y="566" class="st4" width="79" height="19"/>
	<text transform="matrix(1 0 0 1 38 578.0703)" class="st1 st5 st9">EINGANG</text>
	<rect x="605" y="595.1" class="st4" width="223" height="27.3"/>
	<text transform="matrix(1 0 0 1 629.1934 613.5537)" class="st1 st5 st10">Seminartrakt EG</text>
	<line class="st2" x1="1223.5" y1="218.5" x2="1223.5" y2="287.5"/>
</g>
</svg>
