<?xml version="1.0" encoding="utf-8"?>
<!-- Generator: Adobe Illustrator 21.0.2, SVG Export Plug-In . SVG Version: 6.00 Build 0)  -->
<svg version="1.1" id="Ebene_1" xmlns="http://www.w3.org/2000/svg" xmlns:xlink="http://www.w3.org/1999/xlink" x="0px" y="0px"
	 viewBox="0 0 1280 793" style="enable-background:new 0 0 1280 793;" xml:space="preserve">
<style type="text/css">
	.st0{fill:#FFFFFF;}
	.st1{fill:#2E3192;}
	.st2{fill:none;stroke:#2E3192;stroke-miterlimit:10;}
	.st3{fill:#FFFFFF;stroke:#2E3192;stroke-miterlimit:10;}
	.st4{fill:none;}
	.st5{font-family:'MyriadPro-Regular';}
	.st6{font-size:14px;}
	.st7{fill:none;stroke:#2E3192;stroke-miterlimit:10;stroke-dasharray:12,12;}
	.st8{fill:none;stroke:#2E3192;stroke-width:5;stroke-miterlimit:10;}
	.st9{font-size:17px;}
	.st10{font-size:26px;}
</style>
<g>
	<rect x="1077.5" y="2.5" class="st0" width="146" height="146"/>
	<path class="st1" d="M1223,3v145h-145V3H1223 M1224,2h-147v147h147V2L1224,2z"/>
</g>
<g>
	<rect x="395.5" y="2.5" class="st0" width="103" height="146"/>
	<path class="st1" d="M498,3v145H396V3H498 M499,2H395v147h104V2L499,2z"/>
</g>
<g>
	<rect x="450.5" y="218.5" class="st0" width="51" height="146"/>
	<path class="st1" d="M501,219v145h-50V219H501 M502,218h-52v147h52V218L502,218z"/>
</g>
<g>
	<rect x="398.5" y="218.5" class="st0" width="51" height="146"/>
	<path class="st1" d="M449,219v145h-50V219H449 M450,218h-52v147h52V218L450,218z"/>
</g>
<g>
	<rect x="346.5" y="218.5" class="st0" width="51" height="109"/>
	<path class="st1" d="M397,219v108h-50V219H397 M398,218h-52v110h52V218L398,218z"/>
</g>
<g>
	<rect x="346.5" y="327.5" class="st0" width="51" height="37"/>
	<path class="st1" d="M397,328v36h-50v-36H397 M398,327h-52v38h52V327L398,327z"/>
</g>
<g>
	<rect x="294.5" y="218.5" class="st0" width="51" height="146"/>
	<path class="st1" d="M345,219v145h-50V219H345 M346,218h-52v147h52V218L346,218z"/>
</g>
<g>
	<rect x="292.5" y="2.5" class="st0" width="103" height="146"/>
	<path class="st1" d="M395,3v145H293V3H395 M396,2H292v147h104V2L396,2z"/>
</g>
<g>
	<rect x="499.5" y="2.5" class="st0" width="291" height="146"/>
	<path class="st1" d="M790,3v145H500V3H790 M791,2H499v147h292V2L791,2z"/>
</g>
<g>
	<rect x="790.5" y="2.5" class="st0" width="287" height="146"/>
	<path class="st1" d="M1077,3v145H791V3H1077 M1078,2H790v147h288V2L1078,2z"/>
</g>
<g>
	<rect x="1077.5" y="218.5" class="st0" width="146" height="146"/>
	<path class="st1" d="M1223,219v145h-145V219H1223 M1224,218h-147v147h147V218L1224,218z"/>
</g>
<g>
	<rect x="790.5" y="218.5" class="st0" width="287" height="146"/>
	<path class="st1" d="M1077,219v145H791V219H1077 M1078,218H790v147h288V218L1078,218z"/>
</g>
<g>
	<rect x="502.5" y="218.5" class="st0" width="287" height="146"/>
	<path class="st1" d="M789,219v145H503V219H789 M790,218H502v147h288V218L790,218z"/>
</g>
<g>
	<line class="st2" x1="294.5" y1="364.5" x2="294.5" y2="793.5"/>
</g>
<rect x="72.5" y="578.5" class="st3" width="145" height="215"/>
<line class="st2" x1="72.5" y1="433.5" x2="144.5" y2="433.5"/>
<line class="st2" x1="144.5" y1="578.5" x2="144.5" y2="433.5"/>
<line class="st2" x1="217.5" y1="433.5" x2="144.5" y2="433.5"/>
<line class="st2" x1="292.5" y1="433.5" x2="281.5" y2="433.5"/>
<path class="st2" d="M72.5,433.5c3.2-57.4,8.8-118.9,18-184c12.9-91.4,30.5-174.7,50-249"/>
<line class="st2" x1="140.5" y1="0.5" x2="140.5" y2="75.5"/>
<line class="st2" x1="217.5" y1="75.5" x2="140.5" y2="75.5"/>
<rect x="217.5" y="29.5" class="st2" width="75" height="46"/>
<rect x="171.5" y="149.2" transform="matrix(0.9882 0.1531 -0.1531 0.9882 31.9069 -26.6408)" class="st2" width="35" height="89.4"/>
<rect x="155.6" y="253.8" transform="matrix(0.9882 0.1531 -0.1531 0.9882 47.7186 -22.9845)" class="st2" width="35" height="89.4"/>
<line class="st2" x1="196.5" y1="150.5" x2="182.5" y2="238.5"/>
<line class="st2" x1="180.5" y1="254.5" x2="166.5" y2="342.5"/>
<line class="st2" x1="176.5" y1="157.5" x2="211.5" y2="162.5"/>
<line class="st2" x1="174.5" y1="170.5" x2="209.5" y2="175.5"/>
<line class="st2" x1="173.5" y1="181.5" x2="208.5" y2="186.5"/>
<line class="st2" x1="171.5" y1="192.5" x2="206.5" y2="197.5"/>
<line class="st2" x1="169.5" y1="202.5" x2="204.5" y2="207.5"/>
<line class="st2" x1="168.5" y1="212.5" x2="203.5" y2="217.5"/>
<line class="st2" x1="166.5" y1="223.5" x2="201.5" y2="228.5"/>
<line class="st2" x1="160.5" y1="262.5" x2="195.5" y2="267.5"/>
<line class="st2" x1="158.5" y1="275.5" x2="193.5" y2="280.5"/>
<line class="st2" x1="157.5" y1="286.5" x2="192.5" y2="291.5"/>
<line class="st2" x1="155.5" y1="297.5" x2="190.5" y2="302.5"/>
<line class="st2" x1="153.5" y1="307.5" x2="188.5" y2="312.5"/>
<line class="st2" x1="152.5" y1="317.5" x2="187.5" y2="322.5"/>
<line class="st2" x1="150.5" y1="328.5" x2="185.5" y2="333.5"/>
<rect x="303.7" y="44.7" class="st4" width="82.7" height="28"/>
<text transform="matrix(1 0 0 1 314.6763 54.6064)"><tspan x="0" y="0" class="st1 st5 st6">Lektoren-</tspan><tspan x="6.8" y="16.8" class="st1 st5 st6">zimmer</tspan></text>
<rect x="318.3" y="82.7" class="st4" width="53.7" height="18.3"/>
<text transform="matrix(1 0 0 1 322.8862 92.6064)" class="st1 st5 st6">ST.2.04</text>
<rect x="334.7" y="383.7" class="st4" width="82.7" height="28"/>
<text transform="matrix(1 0 0 1 345.7881 393.6064)" class="st1 st5 st6">Putzraum</text>
<rect x="349.3" y="399.7" class="st4" width="53.7" height="18.3"/>
<text transform="matrix(1 0 0 1 353.8862 409.6064)" class="st1 st5 st6">ST.2.14</text>
<rect x="408.7" y="44.7" class="st4" width="82.7" height="28"/>
<text transform="matrix(1 0 0 1 435.377 54.6064)" class="st1 st5 st6">Büro</text>
<rect x="423.3" y="82.7" class="st4" width="53.7" height="18.3"/>
<text transform="matrix(1 0 0 1 427.8862 92.6064)" class="st1 st5 st6">ST.2.05</text>
<rect x="531.7" y="44.7" class="st4" width="82.7" height="28"/>
<text transform="matrix(1 0 0 1 558.377 54.6064)" class="st1 st5 st6">Büro</text>
<rect x="546.3" y="82.7" class="st4" width="53.7" height="18.3"/>
<text transform="matrix(1 0 0 1 550.8862 92.6064)" class="st1 st5 st6">ST.2.06</text>
<rect x="675.7" y="44.7" class="st4" width="82.7" height="28"/>
<text transform="matrix(1 0 0 1 702.377 54.6064)" class="st1 st5 st6">Büro</text>
<rect x="690.3" y="82.7" class="st4" width="53.7" height="18.3"/>
<text transform="matrix(1 0 0 1 691.2324 92.6064)" class="st1 st5 st6">ST.2.06a</text>
<rect x="892.7" y="44.7" class="st4" width="82.7" height="28"/>
<text transform="matrix(1 0 0 1 913.2803 54.6064)" class="st1 st5 st6">Sem. 5</text>
<rect x="907.3" y="82.7" class="st4" width="53.7" height="18.3"/>
<text transform="matrix(1 0 0 1 911.8862 92.6064)" class="st1 st5 st6">ST.2.07</text>
<rect x="1109.7" y="44.7" class="st4" width="82.7" height="28"/>
<text transform="matrix(1 0 0 1 1130.2803 54.6064)" class="st1 st5 st6">Sem. 6</text>
<rect x="1124.3" y="82.7" class="st4" width="53.7" height="18.3"/>
<text transform="matrix(1 0 0 1 1128.8862 92.6064)" class="st1 st5 st6">ST.2.08</text>
<rect x="1109.7" y="263.7" class="st4" width="82.7" height="28"/>
<text transform="matrix(1 0 0 1 1130.2803 273.6064)" class="st1 st5 st6">Sem. 7</text>
<rect x="1124.3" y="301.7" class="st4" width="53.7" height="18.3"/>
<text transform="matrix(1 0 0 1 1128.8862 311.6064)" class="st1 st5 st6">ST.2.09</text>
<rect x="892.7" y="266.7" class="st4" width="82.7" height="28"/>
<text transform="matrix(1 0 0 1 913.2803 276.6064)" class="st1 st5 st6">Sem. 8</text>
<rect x="907.3" y="304.7" class="st4" width="53.7" height="18.3"/>
<text transform="matrix(1 0 0 1 911.8862 314.6064)" class="st1 st5 st6">ST.2.10</text>
<rect x="603.7" y="263.7" class="st4" width="82.7" height="28"/>
<text transform="matrix(1 0 0 1 624.2803 273.6064)" class="st1 st5 st6">Sem. 9</text>
<rect x="618.3" y="301.7" class="st4" width="53.7" height="18.3"/>
<text transform="matrix(1 0 0 1 622.8862 311.6064)" class="st1 st5 st6">ST.2.11</text>
<rect x="102.7" y="664.7" class="st4" width="82.7" height="28"/>
<text transform="matrix(1 0 0 1 119.1714 674.6064)" class="st1 st5 st6">Bespr. 3</text>
<rect x="117.3" y="702.7" class="st4" width="53.7" height="18.3"/>
<text transform="matrix(1 0 0 1 121.8862 712.6064)" class="st1 st5 st6">ST.2.01</text>
<rect x="452" y="263.7" class="st4" width="48" height="28"/>
<text transform="matrix(1 0 0 1 458.4653 273.6064)" class="st1 st5 st6">WC-H</text>
<rect x="448.3" y="301.7" class="st4" width="53.7" height="18.3"/>
<text transform="matrix(1 0 0 1 452.8862 311.6064)" class="st1 st5 st6">ST.2.12</text>
<rect x="400" y="263.7" class="st4" width="48" height="28"/>
<text transform="matrix(1 0 0 1 406.3672 273.6064)" class="st1 st5 st6">WC-D</text>
<rect x="396.3" y="301.7" class="st4" width="53.7" height="18.3"/>
<text transform="matrix(1 0 0 1 400.8862 311.6064)" class="st1 st5 st6">ST.2.13</text>
<rect x="348" y="263.7" class="st4" width="48" height="28"/>
<text transform="matrix(1 0 0 1 354.4932 273.6064)" class="st1 st5 st6">Lager</text>
<rect x="344.3" y="301.7" class="st4" width="53.7" height="18.3"/>
<text transform="matrix(1 0 0 1 348.8862 311.6064)" class="st1 st5 st6">ST.2.15</text>
<g>
	<g>
		<line class="st2" x1="643.5" y1="3.5" x2="643.5" y2="9.5"/>
		<line class="st7" x1="643.5" y1="21.5" x2="643.5" y2="135.5"/>
		<line class="st2" x1="643.5" y1="141.5" x2="643.5" y2="147.5"/>
	</g>
</g>
<line class="st2" x1="376" y1="377" x2="372" y2="349"/>
<line class="st8" x1="365" y1="148.5" x2="383" y2="148.5"/>
<line class="st8" x1="410" y1="148.5" x2="428" y2="148.5"/>
<line class="st8" x1="741" y1="148.5" x2="759" y2="148.5"/>
<line class="st8" x1="1032" y1="148.5" x2="1050" y2="148.5"/>
<line class="st8" x1="1113" y1="148.5" x2="1131" y2="148.5"/>
<line class="st8" x1="1099" y1="217.5" x2="1117" y2="217.5"/>
<line class="st8" x1="998" y1="217.5" x2="1016" y2="217.5"/>
<line class="st8" x1="717" y1="217.5" x2="735" y2="217.5"/>
<line class="st8" x1="476" y1="217.5" x2="494" y2="217.5"/>
<line class="st8" x1="411" y1="217.5" x2="429" y2="217.5"/>
<line class="st8" x1="360" y1="217.5" x2="378" y2="217.5"/>
<line class="st8" x1="398" y1="354.5" x2="398" y2="336.5"/>
<line class="st8" x1="218" y1="751.5" x2="218" y2="733.5"/>
<line class="st8" x1="218" y1="639.5" x2="218" y2="621.5"/>
<line class="st8" x1="144.5" y1="526" x2="144.5" y2="487"/>
<rect x="38" y="497" class="st4" width="79" height="19"/>
<text transform="matrix(1 0 0 1 38 509.0703)" class="st1 st5 st9">EINGANG</text>
<rect x="605" y="526.1" class="st4" width="223" height="27.3"/>
<text transform="matrix(1 0 0 1 629.1934 544.5537)" class="st1 st5 st10">Seminartrakt EG</text>
<line class="st2" x1="1223.5" y1="149.5" x2="1223.5" y2="218.5"/>
</svg>
