<?xml version="1.0" encoding="utf-8"?>
<!-- Generator: Adobe Illustrator 21.0.2, SVG Export Plug-In . SVG Version: 6.00 Build 0)  -->
<svg version="1.1" id="Ebene_1" xmlns="http://www.w3.org/2000/svg" xmlns:xlink="http://www.w3.org/1999/xlink" x="0px" y="0px"
	 viewBox="0 0 1190 801" style="enable-background:new 0 0 1190 801;" xml:space="preserve">
<style type="text/css">
	.st0{fill:#FFFFFF;}
	.st1{fill:#2E3192;}
	.st2{fill:none;stroke:#2E3192;stroke-miterlimit:10;}
	.st3{fill:#FFFFFF;stroke:#2E3192;stroke-miterlimit:10;}
	.st4{fill:none;}
	.st5{font-family:'MyriadPro-Regular';}
	.st6{font-size:14px;}
	.st7{fill:none;stroke:#2E3192;stroke-miterlimit:10;stroke-dasharray:12,12;}
	.st8{fill:none;stroke:#2E3192;stroke-width:5;stroke-miterlimit:10;}
	.st9{font-size:17px;}
	.st10{font-size:26px;}
</style>
<g>
	<rect x="1039.5" y="2.5" class="st0" width="146" height="146"/>
	<path class="st1" d="M1185,3v145h-145V3H1185 M1186,2h-147v147h147V2L1186,2z"/>
</g>
<g>
	<rect x="357.5" y="2.5" class="st0" width="103" height="146"/>
	<path class="st1" d="M460,3v145H358V3H460 M461,2H357v147h104V2L461,2z"/>
</g>
<g>
	<rect x="412.5" y="218.5" class="st0" width="51" height="146"/>
	<path class="st1" d="M463,219v145h-50V219H463 M464,218h-52v147h52V218L464,218z"/>
</g>
<g>
	<rect x="360.5" y="218.5" class="st0" width="51" height="146"/>
	<path class="st1" d="M411,219v145h-50V219H411 M412,218h-52v147h52V218L412,218z"/>
</g>
<g>
	<rect x="308.5" y="218.5" class="st0" width="51" height="109"/>
	<path class="st1" d="M359,219v108h-50V219H359 M360,218h-52v110h52V218L360,218z"/>
</g>
<g>
	<rect x="308.5" y="327.5" class="st0" width="51" height="37"/>
	<path class="st1" d="M359,328v36h-50v-36H359 M360,327h-52v38h52V327L360,327z"/>
</g>
<g>
	<rect x="256.5" y="218.5" class="st0" width="51" height="146"/>
	<path class="st1" d="M307,219v145h-50V219H307 M308,218h-52v147h52V218L308,218z"/>
</g>
<g>
	<rect x="254.5" y="2.5" class="st0" width="103" height="146"/>
	<path class="st1" d="M357,3v145H255V3H357 M358,2H254v147h104V2L358,2z"/>
</g>
<g>
	<rect x="461.5" y="2.5" class="st0" width="291" height="146"/>
	<path class="st1" d="M752,3v145H462V3H752 M753,2H461v147h292V2L753,2z"/>
</g>
<g>
	<rect x="752.5" y="2.5" class="st0" width="287" height="146"/>
	<path class="st1" d="M1039,3v145H753V3H1039 M1040,2H752v147h288V2L1040,2z"/>
</g>
<g>
	<rect x="1039.5" y="218.5" class="st0" width="146" height="146"/>
	<path class="st1" d="M1185,219v145h-145V219H1185 M1186,218h-147v147h147V218L1186,218z"/>
</g>
<g>
	<rect x="752.5" y="218.5" class="st0" width="287" height="146"/>
	<path class="st1" d="M1039,219v145H753V219H1039 M1040,218H752v147h288V218L1040,218z"/>
</g>
<g>
	<rect x="464.5" y="218.5" class="st0" width="287" height="146"/>
	<path class="st1" d="M751,219v145H465V219H751 M752,218H464v147h288V218L752,218z"/>
</g>
<g>
	<line class="st2" x1="256.5" y1="364.5" x2="256.5" y2="793.5"/>
</g>
<rect x="34.5" y="578.5" class="st3" width="145" height="215"/>
<line class="st2" x1="34.5" y1="433.5" x2="106.5" y2="433.5"/>
<line class="st2" x1="106.5" y1="578.5" x2="106.5" y2="433.5"/>
<line class="st2" x1="179.5" y1="433.5" x2="106.5" y2="433.5"/>
<line class="st2" x1="254.5" y1="433.5" x2="243.5" y2="433.5"/>
<path class="st2" d="M34.5,433.5c3.2-57.4,8.8-118.9,18-184c12.9-91.4,30.5-174.7,50-249"/>
<line class="st2" x1="102.5" y1="0.5" x2="102.5" y2="75.5"/>
<line class="st2" x1="179.5" y1="75.5" x2="102.5" y2="75.5"/>
<rect x="179.5" y="29.5" class="st2" width="75" height="46"/>
<rect x="133.5" y="149.2" transform="matrix(0.9882 0.1531 -0.1531 0.9882 31.4592 -20.8249)" class="st2" width="35" height="89.4"/>
<rect x="117.6" y="253.8" transform="matrix(0.9882 0.1531 -0.1531 0.9882 47.2709 -17.1685)" class="st2" width="35" height="89.4"/>
<line class="st2" x1="158.5" y1="150.5" x2="144.5" y2="238.5"/>
<line class="st2" x1="142.5" y1="254.5" x2="128.5" y2="342.5"/>
<line class="st2" x1="138.5" y1="157.5" x2="173.5" y2="162.5"/>
<line class="st2" x1="136.5" y1="170.5" x2="171.5" y2="175.5"/>
<line class="st2" x1="135.5" y1="181.5" x2="170.5" y2="186.5"/>
<line class="st2" x1="133.5" y1="192.5" x2="168.5" y2="197.5"/>
<line class="st2" x1="131.5" y1="202.5" x2="166.5" y2="207.5"/>
<line class="st2" x1="130.5" y1="212.5" x2="165.5" y2="217.5"/>
<line class="st2" x1="128.5" y1="223.5" x2="163.5" y2="228.5"/>
<line class="st2" x1="122.5" y1="262.5" x2="157.5" y2="267.5"/>
<line class="st2" x1="120.5" y1="275.5" x2="155.5" y2="280.5"/>
<line class="st2" x1="119.5" y1="286.5" x2="154.5" y2="291.5"/>
<line class="st2" x1="117.5" y1="297.5" x2="152.5" y2="302.5"/>
<line class="st2" x1="115.5" y1="307.5" x2="150.5" y2="312.5"/>
<line class="st2" x1="114.5" y1="317.5" x2="149.5" y2="322.5"/>
<line class="st2" x1="112.5" y1="328.5" x2="147.5" y2="333.5"/>
<rect x="265.7" y="44.7" class="st4" width="82.7" height="28"/>
<text transform="matrix(1 0 0 1 276.6763 54.6064)"><tspan x="0" y="0" class="st1 st5 st6">Lektoren-</tspan><tspan x="6.8" y="16.8" class="st1 st5 st6">zimmer</tspan></text>
<rect x="280.3" y="82.7" class="st4" width="53.7" height="18.3"/>
<text transform="matrix(1 0 0 1 284.8862 92.6064)" class="st1 st5 st6">ST.2.04</text>
<rect x="296.7" y="383.7" class="st4" width="82.7" height="28"/>
<text transform="matrix(1 0 0 1 307.7881 393.6064)" class="st1 st5 st6">Putzraum</text>
<rect x="311.3" y="399.7" class="st4" width="53.7" height="18.3"/>
<text transform="matrix(1 0 0 1 315.8862 409.6064)" class="st1 st5 st6">ST.2.14</text>
<rect x="370.7" y="44.7" class="st4" width="82.7" height="28"/>
<text transform="matrix(1 0 0 1 397.377 54.6064)" class="st1 st5 st6">Büro</text>
<rect x="385.3" y="82.7" class="st4" width="53.7" height="18.3"/>
<text transform="matrix(1 0 0 1 389.8862 92.6064)" class="st1 st5 st6">ST.2.05</text>
<rect x="493.7" y="44.7" class="st4" width="82.7" height="28"/>
<text transform="matrix(1 0 0 1 520.377 54.6064)" class="st1 st5 st6">Büro</text>
<rect x="508.3" y="82.7" class="st4" width="53.7" height="18.3"/>
<text transform="matrix(1 0 0 1 512.8862 92.6064)" class="st1 st5 st6">ST.2.06</text>
<rect x="637.7" y="44.7" class="st4" width="82.7" height="28"/>
<text transform="matrix(1 0 0 1 664.377 54.6064)" class="st1 st5 st6">Büro</text>
<rect x="652.3" y="82.7" class="st4" width="53.7" height="18.3"/>
<text transform="matrix(1 0 0 1 653.2324 92.6064)" class="st1 st5 st6">ST.2.06a</text>
<rect x="854.7" y="44.7" class="st4" width="82.7" height="28"/>
<text transform="matrix(1 0 0 1 875.2803 54.6064)" class="st1 st5 st6">Sem. 5</text>
<rect x="869.3" y="82.7" class="st4" width="53.7" height="18.3"/>
<text transform="matrix(1 0 0 1 873.8862 92.6064)" class="st1 st5 st6">ST.2.07</text>
<rect x="1071.7" y="44.7" class="st4" width="82.7" height="28"/>
<text transform="matrix(1 0 0 1 1092.2803 54.6064)" class="st1 st5 st6">Sem. 6</text>
<rect x="1086.3" y="82.7" class="st4" width="53.7" height="18.3"/>
<text transform="matrix(1 0 0 1 1090.8862 92.6064)" class="st1 st5 st6">ST.2.08</text>
<rect x="1071.7" y="263.7" class="st4" width="82.7" height="28"/>
<text transform="matrix(1 0 0 1 1092.2803 273.6064)" class="st1 st5 st6">Sem. 7</text>
<rect x="1086.3" y="301.7" class="st4" width="53.7" height="18.3"/>
<text transform="matrix(1 0 0 1 1090.8862 311.6064)" class="st1 st5 st6">ST.2.09</text>
<rect x="854.7" y="266.7" class="st4" width="82.7" height="28"/>
<text transform="matrix(1 0 0 1 875.2803 276.6064)" class="st1 st5 st6">Sem. 8</text>
<rect x="869.3" y="304.7" class="st4" width="53.7" height="18.3"/>
<text transform="matrix(1 0 0 1 873.8862 314.6064)" class="st1 st5 st6">ST.2.10</text>
<rect x="565.7" y="263.7" class="st4" width="82.7" height="28"/>
<text transform="matrix(1 0 0 1 586.2803 273.6064)" class="st1 st5 st6">Sem. 9</text>
<rect x="580.3" y="301.7" class="st4" width="53.7" height="18.3"/>
<text transform="matrix(1 0 0 1 584.8862 311.6064)" class="st1 st5 st6">ST.2.11</text>
<rect x="64.7" y="664.7" class="st4" width="82.7" height="28"/>
<text transform="matrix(1 0 0 1 81.1714 674.6064)" class="st1 st5 st6">Bespr. 3</text>
<rect x="79.3" y="702.7" class="st4" width="53.7" height="18.3"/>
<text transform="matrix(1 0 0 1 83.8862 712.6064)" class="st1 st5 st6">ST.2.01</text>
<rect x="414" y="263.7" class="st4" width="48" height="28"/>
<text transform="matrix(1 0 0 1 420.4653 273.6064)" class="st1 st5 st6">WC-H</text>
<rect x="410.3" y="301.7" class="st4" width="53.7" height="18.3"/>
<text transform="matrix(1 0 0 1 414.8862 311.6064)" class="st1 st5 st6">ST.2.12</text>
<rect x="362" y="263.7" class="st4" width="48" height="28"/>
<text transform="matrix(1 0 0 1 368.3672 273.6064)" class="st1 st5 st6">WC-D</text>
<rect x="358.3" y="301.7" class="st4" width="53.7" height="18.3"/>
<text transform="matrix(1 0 0 1 362.8862 311.6064)" class="st1 st5 st6">ST.2.13</text>
<rect x="310" y="263.7" class="st4" width="48" height="28"/>
<text transform="matrix(1 0 0 1 316.4932 273.6064)" class="st1 st5 st6">Lager</text>
<rect x="306.3" y="301.7" class="st4" width="53.7" height="18.3"/>
<text transform="matrix(1 0 0 1 310.8862 311.6064)" class="st1 st5 st6">ST.2.15</text>
<g>
	<g>
		<line class="st2" x1="605.5" y1="3.5" x2="605.5" y2="9.5"/>
		<line class="st7" x1="605.5" y1="21.5" x2="605.5" y2="135.5"/>
		<line class="st2" x1="605.5" y1="141.5" x2="605.5" y2="147.5"/>
	</g>
</g>
<line class="st2" x1="338" y1="377" x2="334" y2="349"/>
<line class="st8" x1="327" y1="148.5" x2="345" y2="148.5"/>
<line class="st8" x1="372" y1="148.5" x2="390" y2="148.5"/>
<line class="st8" x1="703" y1="148.5" x2="721" y2="148.5"/>
<line class="st8" x1="994" y1="148.5" x2="1012" y2="148.5"/>
<line class="st8" x1="1075" y1="148.5" x2="1093" y2="148.5"/>
<line class="st8" x1="1061" y1="217.5" x2="1079" y2="217.5"/>
<line class="st8" x1="960" y1="217.5" x2="978" y2="217.5"/>
<line class="st8" x1="679" y1="217.5" x2="697" y2="217.5"/>
<line class="st8" x1="438" y1="217.5" x2="456" y2="217.5"/>
<line class="st8" x1="373" y1="217.5" x2="391" y2="217.5"/>
<line class="st8" x1="322" y1="217.5" x2="340" y2="217.5"/>
<line class="st8" x1="360" y1="354.5" x2="360" y2="336.5"/>
<line class="st8" x1="180" y1="751.5" x2="180" y2="733.5"/>
<line class="st8" x1="180" y1="639.5" x2="180" y2="621.5"/>
<line class="st8" x1="106.5" y1="526" x2="106.5" y2="487"/>
<rect y="497" class="st4" width="79" height="19"/>
<text transform="matrix(1 0 0 1 0 509.0703)" class="st1 st5 st9">EINGANG</text>
<rect x="567" y="526.1" class="st4" width="223" height="27.3"/>
<text transform="matrix(1 0 0 1 591.1934 544.5537)" class="st1 st5 st10">Seminartrakt EG</text>
<line class="st2" x1="1185.5" y1="149.5" x2="1185.5" y2="218.5"/>
<rect y="2" class="st4" width="1190" height="799"/>
<g>
	<rect y="2" class="st4" width="1190" height="799"/>
</g>
<g>
	<rect y="2" class="st4" width="1190" height="799"/>
</g>
<g>
	<rect y="2" class="st4" width="1190" height="799"/>
</g>
</svg>
